<svg width="48" height="54" viewBox="0 0 48 54" fill="none" xmlns="http://www.w3.org/2000/svg">
<rect width="48" height="54" rx="12" fill="white"/>
<path d="M17.4167 34.5C17.4167 34.9142 17.7525 35.25 18.1667 35.25C18.5809 35.25 18.9167 34.9142 18.9167 34.5H17.4167ZM23.25 34.5C23.25 34.9142 23.5858 35.25 24 35.25C24.4142 35.25 24.75 34.9142 24.75 34.5H23.25ZM24.75 27C24.75 26.5858 24.4142 26.25 24 26.25C23.5858 26.25 23.25 26.5858 23.25 27H24.75ZM24.75 19.5C24.75 19.0858 24.4142 18.75 24 18.75C23.5858 18.75 23.25 19.0858 23.25 19.5H24.75ZM18.9167 19.5C18.9167 19.0858 18.5809 18.75 18.1667 18.75C17.7525 18.75 17.4167 19.0858 17.4167 19.5L18.9167 19.5ZM29.0833 27C29.0833 27.4142 29.4191 27.75 29.8333 27.75C30.2475 27.75 30.5833 27.4142 30.5833 27H29.0833ZM30.5833 19.5C30.5833 19.0858 30.2475 18.75 29.8333 18.75C29.4191 18.75 29.0833 19.0858 29.0833 19.5H30.5833ZM29.0833 34.5C29.0833 34.9142 29.4191 35.25 29.8333 35.25C30.2475 35.25 30.5833 34.9142 30.5833 34.5H29.0833ZM18.9167 34.5V28.6667H17.4167L17.4167 34.5H18.9167ZM24.75 34.5V27H23.25V34.5H24.75ZM24.75 21.1667V19.5H23.25V21.1667H24.75ZM18.9167 25.3333V19.5L17.4167 19.5L17.4167 25.3333H18.9167ZM30.5833 27V19.5H29.0833V27H30.5833ZM30.5833 34.5V32.8333H29.0833V34.5H30.5833ZM29.8333 30.25C30.3396 30.25 30.75 30.6604 30.75 31.1667H32.25C32.25 29.832 31.168 28.75 29.8333 28.75V30.25ZM30.75 31.1667C30.75 31.6729 30.3396 32.0833 29.8333 32.0833V33.5833C31.168 33.5833 32.25 32.5014 32.25 31.1667H30.75ZM29.8333 32.0833C29.3271 32.0833 28.9167 31.6729 28.9167 31.1667H27.4167C27.4167 32.5014 28.4986 33.5833 29.8333 33.5833V32.0833ZM28.9167 31.1667C28.9167 30.6604 29.3271 30.25 29.8333 30.25V28.75C28.4986 28.75 27.4167 29.832 27.4167 31.1667H28.9167ZM24 21.9167C24.5063 21.9167 24.9167 22.3271 24.9167 22.8333H26.4167C26.4167 21.4986 25.3347 20.4167 24 20.4167V21.9167ZM24.9167 22.8333C24.9167 23.3396 24.5063 23.75 24 23.75V25.25C25.3347 25.25 26.4167 24.168 26.4167 22.8333H24.9167ZM24 23.75C23.4937 23.75 23.0833 23.3396 23.0833 22.8333H21.5833C21.5833 24.168 22.6653 25.25 24 25.25V23.75ZM23.0833 22.8333C23.0833 22.3271 23.4937 21.9167 24 21.9167V20.4167C22.6653 20.4167 21.5833 21.4986 21.5833 22.8333H23.0833ZM18.1667 26.0833C18.6729 26.0833 19.0833 26.4937 19.0833 27H20.5833C20.5833 25.6653 19.5014 24.5833 18.1667 24.5833V26.0833ZM19.0833 27C19.0833 27.5063 18.6729 27.9167 18.1667 27.9167V29.4167C19.5014 29.4167 20.5833 28.3347 20.5833 27H19.0833ZM18.1667 27.9167C17.6604 27.9167 17.25 27.5063 17.25 27H15.75C15.75 28.3347 16.832 29.4167 18.1667 29.4167V27.9167ZM17.25 27C17.25 26.4937 17.6604 26.0833 18.1667 26.0833V24.5833C16.832 24.5833 15.75 25.6653 15.75 27H17.25Z" fill="#90A4AE"/>
</svg>
