<svg width="16" height="18" viewBox="0 0 16 18" fill="none" xmlns="http://www.w3.org/2000/svg">
<path d="M0.5 2.125C0.5 1.62772 0.697544 1.15081 1.04917 0.799175C1.40081 0.447544 1.87772 0.25 2.375 0.25H9.71875C9.9855 0.25 10.2496 0.30254 10.4961 0.40462C10.7425 0.5067 10.9664 0.65632 11.1551 0.844939C11.3437 1.03356 11.4933 1.25748 11.5954 1.50392C11.6975 1.75037 11.75 2.0145 11.75 2.28125V7.125H13.4688C13.7355 7.125 13.9996 7.17754 14.2461 7.27962C14.4925 7.3817 14.7164 7.53132 14.9051 7.71994C15.0937 7.90856 15.2433 8.13248 15.3454 8.37892C15.4475 8.62537 15.5 8.8895 15.5 9.15625V17.125C15.5 17.2908 15.4342 17.4497 15.3169 17.5669C15.1997 17.6842 15.0408 17.75 14.875 17.75H12.375V14.9375C12.375 14.6889 12.2762 14.4504 12.1004 14.2746C11.9246 14.0988 11.6861 14 11.4375 14H4.5625C4.31386 14 4.0754 14.0988 3.89959 14.2746C3.72377 14.4504 3.625 14.6889 3.625 14.9375V17.75H1.125C0.95924 17.75 0.800269 17.6842 0.683058 17.5669C0.565848 17.4497 0.5 17.2908 0.5 17.125V2.125ZM11.125 15.25V17.75H8.625V15.25H11.125ZM7.375 15.25V17.75H4.875V15.25H7.375ZM5.5 4.3125C5.5 4.06386 5.40123 3.8254 5.22541 3.64959C5.0496 3.47377 4.81114 3.375 4.5625 3.375C4.31386 3.375 4.0754 3.47377 3.89959 3.64959C3.72377 3.8254 3.625 4.06386 3.625 4.3125C3.625 4.56114 3.72377 4.7996 3.89959 4.97541C4.0754 5.15123 4.31386 5.25 4.5625 5.25C4.81114 5.25 5.0496 5.15123 5.22541 4.97541C5.40123 4.7996 5.5 4.56114 5.5 4.3125ZM5.5 7.4375C5.5 7.18886 5.40123 6.9504 5.22541 6.77459C5.0496 6.59877 4.81114 6.5 4.5625 6.5C4.31386 6.5 4.0754 6.59877 3.89959 6.77459C3.72377 6.9504 3.625 7.18886 3.625 7.4375C3.625 7.68614 3.72377 7.9246 3.89959 8.10041C4.0754 8.27623 4.31386 8.375 4.5625 8.375C4.81114 8.375 5.0496 8.27623 5.22541 8.10041C5.40123 7.9246 5.5 7.68614 5.5 7.4375ZM4.5625 11.5C4.81114 11.5 5.0496 11.4012 5.22541 11.2254C5.40123 11.0496 5.5 10.8111 5.5 10.5625C5.5 10.3139 5.40123 10.0754 5.22541 9.89959C5.0496 9.72377 4.81114 9.625 4.5625 9.625C4.31386 9.625 4.0754 9.72377 3.89959 9.89959C3.72377 10.0754 3.625 10.3139 3.625 10.5625C3.625 10.8111 3.72377 11.0496 3.89959 11.2254C4.0754 11.4012 4.31386 11.5 4.5625 11.5ZM8.625 4.3125C8.625 4.06386 8.52623 3.8254 8.35041 3.64959C8.1746 3.47377 7.93614 3.375 7.6875 3.375C7.43886 3.375 7.2004 3.47377 7.02459 3.64959C6.84877 3.8254 6.75 4.06386 6.75 4.3125C6.75 4.56114 6.84877 4.7996 7.02459 4.97541C7.2004 5.15123 7.43886 5.25 7.6875 5.25C7.93614 5.25 8.1746 5.15123 8.35041 4.97541C8.52623 4.7996 8.625 4.56114 8.625 4.3125ZM7.6875 8.375C7.93614 8.375 8.1746 8.27623 8.35041 8.10041C8.52623 7.9246 8.625 7.68614 8.625 7.4375C8.625 7.18886 8.52623 6.9504 8.35041 6.77459C8.1746 6.59877 7.93614 6.5 7.6875 6.5C7.43886 6.5 7.2004 6.59877 7.02459 6.77459C6.84877 6.9504 6.75 7.18886 6.75 7.4375C6.75 7.68614 6.84877 7.9246 7.02459 8.10041C7.2004 8.27623 7.43886 8.375 7.6875 8.375ZM8.625 10.5625C8.625 10.3139 8.52623 10.0754 8.35041 9.89959C8.1746 9.72377 7.93614 9.625 7.6875 9.625C7.43886 9.625 7.2004 9.72377 7.02459 9.89959C6.84877 10.0754 6.75 10.3139 6.75 10.5625C6.75 10.8111 6.84877 11.0496 7.02459 11.2254C7.2004 11.4012 7.43886 11.5 7.6875 11.5C7.93614 11.5 8.1746 11.4012 8.35041 11.2254C8.52623 11.0496 8.625 10.8111 8.625 10.5625ZM10.8125 11.5C11.0611 11.5 11.2996 11.4012 11.4754 11.2254C11.6512 11.0496 11.75 10.8111 11.75 10.5625C11.75 10.3139 11.6512 10.0754 11.4754 9.89959C11.2996 9.72377 11.0611 9.625 10.8125 9.625C10.5639 9.625 10.3254 9.72377 10.1496 9.89959C9.97377 10.0754 9.875 10.3139 9.875 10.5625C9.875 10.8111 9.97377 11.0496 10.1496 11.2254C10.3254 11.4012 10.5639 11.5 10.8125 11.5Z" fill="#90A4AE"/>
</svg>
