<svg width="24" height="25" viewBox="0 0 24 25" fill="none" xmlns="http://www.w3.org/2000/svg">
<path d="M2 12.5C2 9.84784 3.05357 7.3043 4.92893 5.42893C6.8043 3.55357 9.34784 2.5 12 2.5C13.3132 2.5 14.6136 2.75866 15.8268 3.2612C17.0401 3.76375 18.1425 4.50035 19.0711 5.42893C19.9997 6.35752 20.7362 7.45991 21.2388 8.67317C21.7413 9.88642 22 11.1868 22 12.5C22 15.1522 20.9464 17.6957 19.0711 19.5711C17.1957 21.4464 14.6522 22.5 12 22.5C10.6868 22.5 9.38642 22.2413 8.17317 21.7388C6.95991 21.2362 5.85752 20.4997 4.92893 19.5711C3.05357 17.6957 2 15.1522 2 12.5ZM10 17.5L15 12.5L10 7.5V17.5Z" fill="#F26522"/>
</svg>
