<svg width="20" height="20" viewBox="0 0 20 20" fill="none" xmlns="http://www.w3.org/2000/svg">
<path d="M8.33366 1.6665H11.667C12.109 1.6665 12.5329 1.8421 12.8455 2.15466C13.1581 2.46722 13.3337 2.89114 13.3337 3.33317V4.99984H16.667C17.109 4.99984 17.5329 5.17543 17.8455 5.48799C18.1581 5.80055 18.3337 6.22448 18.3337 6.6665V15.8332C18.3337 16.2752 18.1581 16.6991 17.8455 17.0117C17.5329 17.3242 17.109 17.4998 16.667 17.4998H3.33366C2.40866 17.4998 1.66699 16.7498 1.66699 15.8332V6.6665C1.66699 5.7415 2.40866 4.99984 3.33366 4.99984H6.66699V3.33317C6.66699 2.40817 7.40866 1.6665 8.33366 1.6665ZM11.667 4.99984V3.33317H8.33366V4.99984H11.667Z" fill="#90A4AE"/>
</svg>
