<svg width="51" height="56" viewBox="0 0 51 56" fill="none" xmlns="http://www.w3.org/2000/svg">
<g clip-path="url(#clip0_4_12462)">
<path d="M34.25 8.75H30.5V6.875C30.5 6.0462 30.1708 5.25134 29.5847 4.66529C28.9987 4.07924 28.2038 3.75 27.375 3.75H23.625C22.7962 3.75 22.0013 4.07924 21.4153 4.66529C20.8292 5.25134 20.5 6.0462 20.5 6.875V8.75H16.75C15.7554 8.75 14.8016 9.14509 14.0983 9.84835C13.3951 10.5516 13 11.5054 13 12.5V22.5C13 23.4946 13.3951 24.4484 14.0983 25.1517C14.8016 25.8549 15.7554 26.25 16.75 26.25H34.25C35.2446 26.25 36.1984 25.8549 36.9017 25.1517C37.6049 24.4484 38 23.4946 38 22.5V12.5C38 11.5054 37.6049 10.5516 36.9017 9.84835C36.1984 9.14509 35.2446 8.75 34.25 8.75ZM23 6.875C23 6.70924 23.0658 6.55027 23.1831 6.43306C23.3003 6.31585 23.4592 6.25 23.625 6.25H27.375C27.5408 6.25 27.6997 6.31585 27.8169 6.43306C27.9342 6.55027 28 6.70924 28 6.875V8.75H23V6.875ZM35.5 22.5C35.5 22.8315 35.3683 23.1495 35.1339 23.3839C34.8995 23.6183 34.5815 23.75 34.25 23.75H16.75C16.4185 23.75 16.1005 23.6183 15.8661 23.3839C15.6317 23.1495 15.5 22.8315 15.5 22.5V12.5C15.5 12.1685 15.6317 11.8505 15.8661 11.6161C16.1005 11.3817 16.4185 11.25 16.75 11.25H34.25C34.5815 11.25 34.8995 11.3817 35.1339 11.6161C35.3683 11.8505 35.5 12.1685 35.5 12.5V22.5Z" fill="white"/>
<path d="M25.5 13.125C24.6347 13.125 23.7888 13.3816 23.0694 13.8623C22.3499 14.3431 21.7892 15.0263 21.458 15.8258C21.1269 16.6252 21.0403 17.5049 21.2091 18.3535C21.3779 19.2022 21.7946 19.9817 22.4064 20.5936C23.0183 21.2054 23.7978 21.6221 24.6465 21.7909C25.4951 21.9597 26.3748 21.8731 27.1742 21.542C27.9737 21.2108 28.657 20.6501 29.1377 19.9306C29.6184 19.2112 29.875 18.3653 29.875 17.5C29.875 16.3397 29.4141 15.2269 28.5936 14.4064C27.7731 13.5859 26.6603 13.125 25.5 13.125ZM25.5 19.375C25.1292 19.375 24.7667 19.265 24.4583 19.059C24.15 18.853 23.9096 18.5601 23.7677 18.2175C23.6258 17.8749 23.5887 17.4979 23.661 17.1342C23.7334 16.7705 23.912 16.4364 24.1742 16.1742C24.4364 15.912 24.7705 15.7334 25.1342 15.661C25.4979 15.5887 25.8749 15.6258 26.2175 15.7677C26.5601 15.9096 26.853 16.15 27.059 16.4583C27.265 16.7666 27.375 17.1292 27.375 17.5C27.375 17.9973 27.1775 18.4742 26.8258 18.8258C26.4742 19.1775 25.9973 19.375 25.5 19.375Z" fill="white"/>
</g>
<path d="M0.616641 46.1C0.616641 45.3627 0.742641 44.6907 0.994641 44.084C1.24664 43.468 1.59664 42.9407 2.04464 42.502C2.49264 42.054 3.01064 41.7087 3.59864 41.466C4.19597 41.2233 4.83997 41.102 5.53064 41.102C6.51064 41.102 7.38331 41.3307 8.14864 41.788C8.92331 42.2453 9.51131 42.9033 9.91264 43.762L8.79264 44.168C8.56864 43.7293 8.28397 43.3747 7.93864 43.104C7.59331 42.8333 7.21531 42.6327 6.80464 42.502C6.39397 42.3713 5.97864 42.306 5.55864 42.306C4.89597 42.306 4.29397 42.46 3.75264 42.768C3.22064 43.076 2.80064 43.5147 2.49264 44.084C2.19397 44.6533 2.04464 45.3253 2.04464 46.1C2.04464 46.8653 2.19397 47.5327 2.49264 48.102C2.80064 48.6713 3.22064 49.1147 3.75264 49.432C4.29397 49.74 4.89597 49.894 5.55864 49.894C5.98797 49.894 6.41264 49.824 6.83264 49.684C7.25264 49.544 7.64464 49.32 8.00864 49.012C8.37264 48.6947 8.67131 48.284 8.90464 47.78L10.0246 48.172C9.60464 49.1613 9.00264 49.8987 8.21864 50.384C7.43464 50.86 6.53864 51.098 5.53064 51.098C4.83997 51.098 4.19597 50.9767 3.59864 50.734C3.01064 50.4913 2.49264 50.146 2.04464 49.698C1.59664 49.25 1.24664 48.7227 0.994641 48.116C0.742641 47.5 0.616641 46.828 0.616641 46.1ZM16.026 51L15.914 49.978C15.6994 50.3327 15.4194 50.608 15.074 50.804C14.738 50.9907 14.2994 51.084 13.758 51.084C13.254 51.084 12.8247 51.0047 12.47 50.846C12.1154 50.678 11.84 50.4493 11.644 50.16C11.4574 49.8613 11.364 49.516 11.364 49.124C11.364 48.536 11.5834 48.0507 12.022 47.668C12.4607 47.276 13.0954 47.0333 13.926 46.94L15.914 46.716V46.17C15.914 45.8713 15.7927 45.6193 15.55 45.414C15.3074 45.1993 14.9574 45.092 14.5 45.092C14.0707 45.092 13.7067 45.1947 13.408 45.4C13.1094 45.596 12.9087 45.89 12.806 46.282L11.63 45.862C11.8074 45.246 12.1527 44.7653 12.666 44.42C13.1887 44.0747 13.8187 43.902 14.556 43.902C15.4334 43.902 16.1007 44.1213 16.558 44.56C17.0154 44.9987 17.244 45.5773 17.244 46.296V51H16.026ZM15.914 47.794L13.996 48.032C13.5854 48.088 13.2774 48.2047 13.072 48.382C12.8667 48.55 12.764 48.774 12.764 49.054C12.764 49.3153 12.862 49.5347 13.058 49.712C13.2634 49.88 13.548 49.964 13.912 49.964C14.36 49.964 14.7334 49.88 15.032 49.712C15.3307 49.544 15.55 49.3107 15.69 49.012C15.8394 48.704 15.914 48.3493 15.914 47.948V47.794ZM19.1389 44H20.3429L20.4269 44.812C20.6509 44.532 20.9309 44.3127 21.2669 44.154C21.6029 43.986 21.9809 43.902 22.4009 43.902C22.8769 43.902 23.3062 44.0093 23.6889 44.224C24.0809 44.4293 24.3889 44.7373 24.6129 45.148C24.8462 44.7373 25.1775 44.4293 25.6069 44.224C26.0362 44.0093 26.5075 43.902 27.0209 43.902C27.5529 43.902 28.0195 44.0187 28.4209 44.252C28.8315 44.476 29.1489 44.812 29.3729 45.26C29.5969 45.708 29.7089 46.268 29.7089 46.94V51H28.3789V47.108C28.3789 46.4547 28.2389 45.96 27.9589 45.624C27.6789 45.2787 27.2775 45.106 26.7549 45.106C26.2229 45.106 25.8029 45.2833 25.4949 45.638C25.1869 45.9927 25.0329 46.5107 25.0329 47.192V51H23.7029V47.108C23.7029 46.4547 23.5722 45.96 23.3109 45.624C23.0495 45.2787 22.6575 45.106 22.1349 45.106C21.6029 45.106 21.1875 45.2833 20.8889 45.638C20.5995 45.9927 20.4549 46.5107 20.4549 47.192V51H19.1389V44ZM34.6319 51.098C33.9599 51.098 33.3626 50.944 32.8399 50.636C32.3266 50.3187 31.9206 49.8847 31.6219 49.334C31.3326 48.7833 31.1879 48.1533 31.1879 47.444C31.1879 46.7627 31.3326 46.156 31.6219 45.624C31.9113 45.092 32.3079 44.672 32.8119 44.364C33.3253 44.056 33.9039 43.902 34.5479 43.902C35.2013 43.902 35.7799 44.0467 36.2839 44.336C36.7879 44.616 37.1799 45.0127 37.4599 45.526C37.7399 46.03 37.8753 46.6133 37.8659 47.276C37.8659 47.388 37.8613 47.5047 37.8519 47.626C37.8426 47.738 37.8286 47.864 37.8099 48.004H32.6299C32.6579 48.3773 32.7606 48.7087 32.9379 48.998C33.1246 49.278 33.3579 49.4973 33.6379 49.656C33.9273 49.8147 34.2539 49.894 34.6179 49.894C35.0846 49.894 35.4906 49.8053 35.8359 49.628C36.1813 49.4413 36.4239 49.194 36.5639 48.886L37.7119 49.292C37.4319 49.8613 37.0213 50.3047 36.4799 50.622C35.9479 50.9393 35.3319 51.098 34.6319 51.098ZM36.4239 46.87C36.4239 46.534 36.3399 46.2307 36.1719 45.96C36.0039 45.6893 35.7753 45.4793 35.4859 45.33C35.2059 45.1713 34.8886 45.092 34.5339 45.092C34.2166 45.092 33.9226 45.1713 33.6519 45.33C33.3906 45.4793 33.1666 45.6893 32.9799 45.96C32.8026 46.2213 32.6906 46.5247 32.6439 46.87H36.4239ZM39.4826 44H40.6866L40.7706 44.938C40.9666 44.6953 41.1906 44.4947 41.4426 44.336C41.7039 44.168 41.9839 44.0513 42.2826 43.986C42.5906 43.9207 42.9079 43.9253 43.2346 44V45.246C42.9266 45.1713 42.6279 45.162 42.3386 45.218C42.0493 45.274 41.7879 45.3953 41.5546 45.582C41.3306 45.7593 41.1486 45.9973 41.0086 46.296C40.8686 46.5947 40.7986 46.954 40.7986 47.374V51H39.4826V44ZM48.8385 51L48.7265 49.978C48.5119 50.3327 48.2319 50.608 47.8865 50.804C47.5505 50.9907 47.1119 51.084 46.5705 51.084C46.0665 51.084 45.6372 51.0047 45.2825 50.846C44.9279 50.678 44.6525 50.4493 44.4565 50.16C44.2699 49.8613 44.1765 49.516 44.1765 49.124C44.1765 48.536 44.3959 48.0507 44.8345 47.668C45.2732 47.276 45.9079 47.0333 46.7385 46.94L48.7265 46.716V46.17C48.7265 45.8713 48.6052 45.6193 48.3625 45.414C48.1199 45.1993 47.7699 45.092 47.3125 45.092C46.8832 45.092 46.5192 45.1947 46.2205 45.4C45.9219 45.596 45.7212 45.89 45.6185 46.282L44.4425 45.862C44.6199 45.246 44.9652 44.7653 45.4785 44.42C46.0012 44.0747 46.6312 43.902 47.3685 43.902C48.2459 43.902 48.9132 44.1213 49.3705 44.56C49.8279 44.9987 50.0565 45.5773 50.0565 46.296V51H48.8385ZM48.7265 47.794L46.8085 48.032C46.3979 48.088 46.0899 48.2047 45.8845 48.382C45.6792 48.55 45.5765 48.774 45.5765 49.054C45.5765 49.3153 45.6745 49.5347 45.8705 49.712C46.0759 49.88 46.3605 49.964 46.7245 49.964C47.1725 49.964 47.5459 49.88 47.8445 49.712C48.1432 49.544 48.3625 49.3107 48.5025 49.012C48.6519 48.704 48.7265 48.3493 48.7265 47.948V47.794Z" fill="white"/>
<defs>
<clipPath id="clip0_4_12462">
<rect width="30" height="30" fill="white" transform="translate(10.5)"/>
</clipPath>
</defs>
</svg>
