<svg width="36" height="36" viewBox="0 0 36 36" fill="none" xmlns="http://www.w3.org/2000/svg">
<path d="M24.6667 2.25C24.2525 2.25 23.9167 2.58579 23.9167 3C23.9167 3.41421 24.2525 3.75 24.6667 3.75V2.25ZM11.3333 3.75C11.7475 3.75 12.0833 3.41421 12.0833 3C12.0833 2.58579 11.7475 2.25 11.3333 2.25V3.75ZM32.25 11.3333C32.25 11.7475 32.5858 12.0833 33 12.0833C33.4142 12.0833 33.75 11.7475 33.75 11.3333H32.25ZM33.75 24.6667C33.75 24.2525 33.4142 23.9167 33 23.9167C32.5858 23.9167 32.25 24.2525 32.25 24.6667H33.75ZM24.6667 32.25C24.2525 32.25 23.9167 32.5858 23.9167 33C23.9167 33.4142 24.2525 33.75 24.6667 33.75V32.25ZM11.3333 33.75C11.7475 33.75 12.0833 33.4142 12.0833 33C12.0833 32.5858 11.7475 32.25 11.3333 32.25V33.75ZM2.25 11.3333C2.25 11.7475 2.58579 12.0833 3 12.0833C3.41421 12.0833 3.75 11.7475 3.75 11.3333H2.25ZM3.75 24.6667C3.75 24.2525 3.41421 23.9167 3 23.9167C2.58579 23.9167 2.25 24.2525 2.25 24.6667H3.75ZM24.6667 3.75H27V2.25H24.6667V3.75ZM9 3.75H11.3333V2.25H9V3.75ZM32.25 9V11.3333H33.75V9H32.25ZM32.25 24.6667V27H33.75V24.6667H32.25ZM27 32.25H24.6667V33.75H27V32.25ZM11.3333 32.25H9V33.75H11.3333V32.25ZM3.75 11.3333V9H2.25V11.3333H3.75ZM3.75 27V24.6667H2.25V27H3.75ZM9 32.25C6.1005 32.25 3.75 29.8995 3.75 27H2.25C2.25 30.7279 5.27208 33.75 9 33.75V32.25ZM32.25 27C32.25 29.8995 29.8995 32.25 27 32.25V33.75C30.7279 33.75 33.75 30.7279 33.75 27H32.25ZM27 3.75C29.8995 3.75 32.25 6.1005 32.25 9H33.75C33.75 5.27208 30.7279 2.25 27 2.25V3.75ZM9 2.25C5.27208 2.25 2.25 5.27208 2.25 9H3.75C3.75 6.1005 6.1005 3.75 9 3.75V2.25ZM24.75 18C24.75 21.7279 21.7279 24.75 18 24.75V26.25C22.5563 26.25 26.25 22.5563 26.25 18H24.75ZM18 24.75C14.2721 24.75 11.25 21.7279 11.25 18H9.75C9.75 22.5563 13.4437 26.25 18 26.25V24.75ZM11.25 18C11.25 14.2721 14.2721 11.25 18 11.25V9.75C13.4437 9.75 9.75 13.4437 9.75 18H11.25ZM18 11.25C21.7279 11.25 24.75 14.2721 24.75 18H26.25C26.25 13.4437 22.5563 9.75 18 9.75V11.25Z" fill="white"/>
</svg>
