<svg width="33" height="33" viewBox="0 0 33 33" fill="none" xmlns="http://www.w3.org/2000/svg">
<path d="M22.6495 3.0415C21.0661 1.45817 19.0078 0.666504 17.1078 0.666504C15.2078 0.666504 12.9911 1.45817 11.5661 3.0415L2.38281 11.9082C-0.783854 15.0748 -0.783854 19.9832 2.38281 23.1498C5.54948 26.3165 10.4578 26.3165 13.6245 23.1498L22.6495 14.1248C25.6578 11.1165 25.6578 6.04984 22.6495 3.0415ZM20.4328 11.9082L15.9995 16.3415L10.2995 10.7998L3.33281 17.7665C3.33281 16.4998 3.64948 15.0748 4.75781 14.1248L13.7828 5.09984C14.5745 4.30817 15.8411 3.83317 16.9495 3.83317C18.0578 3.83317 19.3245 4.30817 20.2745 5.09984C22.1745 7.15817 22.1745 10.0082 20.4328 11.9082ZM28.0328 8.7415C28.0328 10.0082 27.7161 11.1165 27.3995 12.3832C28.9828 14.2832 28.9828 17.1332 27.2411 18.8748L22.8078 23.3082L20.4328 20.9332L15.9995 25.3665C13.9411 27.4248 11.0911 28.5332 8.39948 28.5332C8.71614 29.0082 9.03281 29.4832 9.50781 29.9582C12.6745 33.1248 17.5828 33.1248 20.7495 29.9582L29.7745 20.9332C32.9411 17.7665 32.9411 12.8582 29.7745 9.6915C28.9828 9.37484 28.5078 9.05817 28.0328 8.7415Z" fill="#F26522"/>
</svg>
