<svg width="34" height="34" viewBox="0 0 34 34" fill="none" xmlns="http://www.w3.org/2000/svg">
<path d="M24.0003 2.8335C22.3337 1.16683 20.167 0.333496 18.167 0.333496C16.167 0.333496 13.8337 1.16683 12.3337 2.8335L2.66699 12.1668C-0.666341 15.5002 -0.666341 20.6668 2.66699 24.0002C6.00033 27.3335 11.167 27.3335 14.5003 24.0002L24.0003 14.5002C27.167 11.3335 27.167 6.00016 24.0003 2.8335ZM21.667 12.1668L17.0003 16.8335L11.0003 11.0002L3.66699 18.3335C3.66699 17.0002 4.00033 15.5002 5.16699 14.5002L14.667 5.00016C15.5003 4.16683 16.8337 3.66683 18.0003 3.66683C19.167 3.66683 20.5003 4.16683 21.5003 5.00016C23.5003 7.16683 23.5003 10.1668 21.667 12.1668ZM29.667 8.8335C29.667 10.1668 29.3337 11.3335 29.0003 12.6668C30.667 14.6668 30.667 17.6668 28.8337 19.5002L24.167 24.1668L21.667 21.6668L17.0003 26.3335C14.8337 28.5002 11.8337 29.6668 9.00033 29.6668C9.33366 30.1668 9.667 30.6668 10.167 31.1668C13.5003 34.5002 18.667 34.5002 22.0003 31.1668L31.5003 21.6668C34.8337 18.3335 34.8337 13.1668 31.5003 9.8335C30.667 9.50017 30.167 9.16683 29.667 8.8335Z" fill="white"/>
</svg>
