<svg width="28" height="28" viewBox="0 0 28 28" fill="none" xmlns="http://www.w3.org/2000/svg">
<path d="M2.3335 3.5C4.61914 3.49997 6.61376 4.91965 7.4082 6.97907M7.4082 6.97907C7.54694 7.3387 7.64907 7.71785 7.70976 8.11234L8.78472 15.0996C9.09378 17.1085 10.9045 18.5357 12.93 18.3669L21.1079 17.6854C22.4009 17.5777 23.4339 16.5683 23.5945 15.2807C23.8464 13.2611 24.0494 11.9673 24.3114 9.79752C24.3577 9.41385 24.3809 9.22196 24.3541 9.05824C24.2865 8.64532 23.997 8.29528 23.6041 8.15134C23.4484 8.09426 23.2534 8.08085 22.8636 8.05404L7.4082 6.97907ZM14.0002 23.3333C14.0002 23.9776 13.4778 24.4999 12.8335 24.4999C12.1892 24.4999 11.6668 23.9776 11.6668 23.3333C11.6668 22.6889 12.1892 22.1666 12.8335 22.1666C13.4778 22.1666 14.0002 22.6889 14.0002 23.3333ZM23.3335 23.3333C23.3335 23.9776 22.8112 24.4999 22.1668 24.4999C21.5225 24.4999 21.0002 23.9776 21.0002 23.3333C21.0002 22.6889 21.5225 22.1666 22.1668 22.1666C22.8112 22.1666 23.3335 22.6889 23.3335 23.3333Z" stroke="#90A4AE" stroke-width="2" stroke-linecap="round" stroke-linejoin="round"/>
</svg>
