<svg width="28" height="28" viewBox="0 0 28 28" fill="none" xmlns="http://www.w3.org/2000/svg">
<path d="M3.5 7.58333C3.5 5.32817 5.32817 3.5 7.58333 3.5C9.8385 3.5 11.6667 5.32817 11.6667 7.58333C11.6667 9.8385 9.8385 11.6667 7.58333 11.6667C5.32817 11.6667 3.5 9.8385 3.5 7.58333Z" stroke="#90A4AE" stroke-width="2" stroke-linecap="round" stroke-linejoin="round"/>
<path d="M3.5 20.4167C3.5 18.1615 5.32817 16.3333 7.58333 16.3333C9.8385 16.3333 11.6667 18.1615 11.6667 20.4167C11.6667 22.6718 9.8385 24.5 7.58333 24.5C5.32817 24.5 3.5 22.6718 3.5 20.4167Z" stroke="#90A4AE" stroke-width="2" stroke-linecap="round" stroke-linejoin="round"/>
<path d="M16.3333 7.58333C16.3333 5.32817 18.1615 3.5 20.4167 3.5C22.6718 3.5 24.5 5.32817 24.5 7.58333C24.5 9.8385 22.6718 11.6667 20.4167 11.6667C18.1615 11.6667 16.3333 9.8385 16.3333 7.58333Z" stroke="#90A4AE" stroke-width="2" stroke-linecap="round" stroke-linejoin="round"/>
<path d="M16.3333 20.4167C16.3333 18.1615 18.1615 16.3333 20.4167 16.3333C22.6718 16.3333 24.5 18.1615 24.5 20.4167C24.5 22.6718 22.6718 24.5 20.4167 24.5C18.1615 24.5 16.3333 22.6718 16.3333 20.4167Z" stroke="#90A4AE" stroke-width="2" stroke-linecap="round" stroke-linejoin="round"/>
</svg>
