<svg width="20" height="20" viewBox="0 0 20 20" fill="none" xmlns="http://www.w3.org/2000/svg">
<g clip-path="url(#clip0_4_4941)">
<path d="M12.4998 13.3335H7.49984C7.27882 13.3335 7.06686 13.4213 6.91058 13.5776C6.7543 13.7339 6.6665 13.9458 6.6665 14.1668C6.6665 14.3878 6.7543 14.5998 6.91058 14.7561C7.06686 14.9124 7.27882 15.0002 7.49984 15.0002H12.4998C12.7209 15.0002 12.9328 14.9124 13.0891 14.7561C13.2454 14.5998 13.3332 14.3878 13.3332 14.1668C13.3332 13.9458 13.2454 13.7339 13.0891 13.5776C12.9328 13.4213 12.7209 13.3335 12.4998 13.3335Z" fill="white"/>
<path d="M7.49984 11.6667H9.99984C10.2209 11.6667 10.4328 11.5789 10.5891 11.4226C10.7454 11.2663 10.8332 11.0543 10.8332 10.8333C10.8332 10.6123 10.7454 10.4004 10.5891 10.2441C10.4328 10.0878 10.2209 10 9.99984 10H7.49984C7.27882 10 7.06686 10.0878 6.91058 10.2441C6.7543 10.4004 6.6665 10.6123 6.6665 10.8333C6.6665 11.0543 6.7543 11.2663 6.91058 11.4226C7.06686 11.5789 7.27882 11.6667 7.49984 11.6667Z" fill="white"/>
<path d="M16.4502 6.94165L11.9168 1.94165C11.8389 1.85533 11.7438 1.78626 11.6376 1.7389C11.5314 1.69154 11.4164 1.66693 11.3002 1.66665H5.46683C5.18995 1.66335 4.91514 1.71462 4.65808 1.81753C4.40102 1.92045 4.16675 2.07299 3.96865 2.26645C3.77055 2.45991 3.61249 2.6905 3.50351 2.94504C3.39453 3.19959 3.33676 3.47311 3.3335 3.74999V16.25C3.33676 16.5269 3.39453 16.8004 3.50351 17.0549C3.61249 17.3095 3.77055 17.5401 3.96865 17.7335C4.16675 17.927 4.40102 18.0795 4.65808 18.1824C4.91514 18.2854 5.18995 18.3366 5.46683 18.3333H14.5335C14.8104 18.3366 15.0852 18.2854 15.3422 18.1824C15.5993 18.0795 15.8336 17.927 16.0317 17.7335C16.2298 17.5401 16.3878 17.3095 16.4968 17.0549C16.6058 16.8004 16.6636 16.5269 16.6668 16.25V7.49999C16.6663 7.29346 16.5891 7.09449 16.4502 6.94165ZM11.6668 4.16665L13.9502 6.66665H12.2835C12.1962 6.66139 12.1109 6.63879 12.0324 6.60018C11.954 6.56157 11.884 6.50773 11.8266 6.44179C11.7692 6.37585 11.7255 6.29914 11.6981 6.21613C11.6707 6.13312 11.66 6.04548 11.6668 5.95832V4.16665ZM14.5335 16.6667H5.46683C5.40881 16.67 5.35069 16.6619 5.29581 16.6428C5.24093 16.6237 5.19036 16.5939 5.14701 16.5552C5.10365 16.5165 5.06837 16.4696 5.04317 16.4172C5.01797 16.3649 5.00335 16.308 5.00016 16.25V3.74999C5.00335 3.69196 5.01797 3.63512 5.04317 3.58275C5.06837 3.53038 5.10365 3.48349 5.14701 3.44479C5.19036 3.40608 5.24093 3.37631 5.29581 3.35718C5.35069 3.33805 5.40881 3.32994 5.46683 3.33332H10.0002V5.95832C9.98671 6.57217 10.2166 7.16643 10.6397 7.61138C11.0628 8.05633 11.6447 8.31586 12.2585 8.33332H15.0002V16.25C14.997 16.308 14.9824 16.3649 14.9572 16.4172C14.932 16.4696 14.8967 16.5165 14.8533 16.5552C14.81 16.5939 14.7594 16.6237 14.7045 16.6428C14.6496 16.6619 14.5915 16.67 14.5335 16.6667Z" fill="white"/>
</g>
<defs>
<clipPath id="clip0_4_4941">
<rect width="20" height="20" fill="white"/>
</clipPath>
</defs>
</svg>
