<svg width="20" height="20" viewBox="0 0 20 20" fill="none" xmlns="http://www.w3.org/2000/svg">
<g clip-path="url(#clip0_4_4932)">
<path d="M16.4502 6.94165L11.9168 1.94165C11.8389 1.85533 11.7438 1.78626 11.6376 1.7389C11.5314 1.69154 11.4164 1.66693 11.3002 1.66665H5.46683C5.18995 1.66335 4.91514 1.71462 4.65808 1.81753C4.40102 1.92045 4.16675 2.07299 3.96865 2.26645C3.77055 2.45991 3.61249 2.6905 3.50351 2.94504C3.39453 3.19959 3.33676 3.47311 3.3335 3.74999V16.25C3.33676 16.5269 3.39453 16.8004 3.50351 17.0549C3.61249 17.3095 3.77055 17.5401 3.96865 17.7335C4.16675 17.927 4.40102 18.0795 4.65808 18.1824C4.91514 18.2854 5.18995 18.3366 5.46683 18.3333H14.5335C14.8104 18.3366 15.0852 18.2854 15.3422 18.1824C15.5993 18.0795 15.8336 17.927 16.0317 17.7335C16.2298 17.5401 16.3878 17.3095 16.4968 17.0549C16.6058 16.8004 16.6636 16.5269 16.6668 16.25V7.49999C16.6663 7.29346 16.5891 7.09449 16.4502 6.94165ZM14.7085 7.49999H11.4252C11.2534 7.48307 11.0951 7.39935 10.9844 7.26686C10.8738 7.13437 10.8196 6.96372 10.8335 6.79165V3.33332H10.9252L14.7085 7.49999ZM14.5335 16.6667H5.46683C5.40881 16.67 5.35069 16.6619 5.29581 16.6428C5.24093 16.6237 5.19036 16.5939 5.14701 16.5552C5.10365 16.5165 5.06837 16.4696 5.04317 16.4172C5.01797 16.3649 5.00335 16.308 5.00016 16.25V3.74999C5.00335 3.69196 5.01797 3.63512 5.04317 3.58275C5.06837 3.53038 5.10365 3.48349 5.14701 3.44479C5.19036 3.40608 5.24093 3.37631 5.29581 3.35718C5.35069 3.33805 5.40881 3.32994 5.46683 3.33332H9.16683V6.79165C9.15338 7.40551 9.38329 7.99976 9.80639 8.44471C10.2295 8.88967 10.8114 9.1492 11.4252 9.16665H15.0002V16.25C14.997 16.308 14.9824 16.3649 14.9572 16.4172C14.932 16.4696 14.8967 16.5165 14.8533 16.5552C14.81 16.5939 14.7594 16.6237 14.7045 16.6428C14.6496 16.6619 14.5915 16.67 14.5335 16.6667Z" fill="white"/>
</g>
<defs>
<clipPath id="clip0_4_4932">
<rect width="20" height="20" fill="white"/>
</clipPath>
</defs>
</svg>
