<svg width="20" height="20" viewBox="0 0 20 20" fill="none" xmlns="http://www.w3.org/2000/svg">
<path d="M2.25 19C2.25 19.4142 2.58579 19.75 3 19.75C3.41421 19.75 3.75 19.4142 3.75 19H2.25ZM9.25 19C9.25 19.4142 9.58579 19.75 10 19.75C10.4142 19.75 10.75 19.4142 10.75 19H9.25ZM10.75 10C10.75 9.58579 10.4142 9.25 10 9.25C9.58579 9.25 9.25 9.58579 9.25 10H10.75ZM10.75 1C10.75 0.585786 10.4142 0.25 10 0.25C9.58579 0.25 9.25 0.585786 9.25 1H10.75ZM3.75 1C3.75 0.585786 3.41421 0.25 3 0.25C2.58579 0.25 2.25 0.585786 2.25 1L3.75 1ZM16.25 10C16.25 10.4142 16.5858 10.75 17 10.75C17.4142 10.75 17.75 10.4142 17.75 10H16.25ZM17.75 1C17.75 0.585786 17.4142 0.25 17 0.25C16.5858 0.25 16.25 0.585786 16.25 1H17.75ZM16.25 19C16.25 19.4142 16.5858 19.75 17 19.75C17.4142 19.75 17.75 19.4142 17.75 19H16.25ZM3.75 19V12H2.25L2.25 19H3.75ZM10.75 19V10H9.25V19H10.75ZM10.75 3V1H9.25V3H10.75ZM3.75 8L3.75 1L2.25 1L2.25 8H3.75ZM17.75 10V1H16.25V10H17.75ZM17.75 19V17H16.25V19H17.75ZM17 13.75C17.6904 13.75 18.25 14.3096 18.25 15H19.75C19.75 13.4812 18.5188 12.25 17 12.25V13.75ZM18.25 15C18.25 15.6904 17.6904 16.25 17 16.25V17.75C18.5188 17.75 19.75 16.5188 19.75 15H18.25ZM17 16.25C16.3096 16.25 15.75 15.6904 15.75 15H14.25C14.25 16.5188 15.4812 17.75 17 17.75V16.25ZM15.75 15C15.75 14.3096 16.3096 13.75 17 13.75V12.25C15.4812 12.25 14.25 13.4812 14.25 15H15.75ZM10 3.75C10.6904 3.75 11.25 4.30964 11.25 5H12.75C12.75 3.48122 11.5188 2.25 10 2.25V3.75ZM11.25 5C11.25 5.69036 10.6904 6.25 10 6.25V7.75C11.5188 7.75 12.75 6.51878 12.75 5H11.25ZM10 6.25C9.30964 6.25 8.75 5.69036 8.75 5H7.25C7.25 6.51878 8.48122 7.75 10 7.75V6.25ZM8.75 5C8.75 4.30964 9.30964 3.75 10 3.75V2.25C8.48122 2.25 7.25 3.48122 7.25 5H8.75ZM3 8.75C3.69036 8.75 4.25 9.30964 4.25 10H5.75C5.75 8.48122 4.51878 7.25 3 7.25V8.75ZM4.25 10C4.25 10.6904 3.69036 11.25 3 11.25V12.75C4.51878 12.75 5.75 11.5188 5.75 10H4.25ZM3 11.25C2.30964 11.25 1.75 10.6904 1.75 10H0.25C0.25 11.5188 1.48122 12.75 3 12.75V11.25ZM1.75 10C1.75 9.30964 2.30964 8.75 3 8.75V7.25C1.48122 7.25 0.25 8.48122 0.25 10H1.75Z" fill="#90A4AE"/>
</svg>
