<svg width="46" height="56" viewBox="0 0 46 56" fill="none" xmlns="http://www.w3.org/2000/svg">
<g clip-path="url(#clip0_4_12466)">
<path d="M30.5 3.75H15.5C14.5054 3.75 13.5516 4.14509 12.8483 4.84835C12.1451 5.55161 11.75 6.50544 11.75 7.5V22.5C11.75 23.4946 12.1451 24.4484 12.8483 25.1517C13.5516 25.8549 14.5054 26.25 15.5 26.25H30.5C31.4946 26.25 32.4484 25.8549 33.1517 25.1517C33.8549 24.4484 34.25 23.4946 34.25 22.5V7.5C34.25 6.50544 33.8549 5.55161 33.1517 4.84835C32.4484 4.14509 31.4946 3.75 30.5 3.75ZM15.5 6.25H30.5C30.8315 6.25 31.1495 6.3817 31.3839 6.61612C31.6183 6.85054 31.75 7.16848 31.75 7.5V17.95L27.75 14.5375C27.1302 14.0276 26.3526 13.7487 25.55 13.7487C24.7474 13.7487 23.9698 14.0276 23.35 14.5375L14.25 22.125V7.5C14.25 7.16848 14.3817 6.85054 14.6161 6.61612C14.8505 6.3817 15.1685 6.25 15.5 6.25ZM30.5 23.75H16.2L24.95 16.45C25.1181 16.3252 25.3219 16.2578 25.5312 16.2578C25.7406 16.2578 25.9444 16.3252 26.1125 16.45L31.75 21.25V22.5C31.75 22.8315 31.6183 23.1495 31.3839 23.3839C31.1495 23.6183 30.8315 23.75 30.5 23.75Z" fill="white"/>
<path d="M18 12.5C19.0355 12.5 19.875 11.6605 19.875 10.625C19.875 9.58947 19.0355 8.75 18 8.75C16.9645 8.75 16.125 9.58947 16.125 10.625C16.125 11.6605 16.9645 12.5 18 12.5Z" fill="white"/>
</g>
<path d="M9.0729 44.196C8.71823 43.5333 8.26557 43.0527 7.7149 42.754C7.17357 42.4553 6.5809 42.306 5.9369 42.306C5.28357 42.306 4.68623 42.4647 4.1449 42.782C3.60357 43.0993 3.17423 43.5427 2.8569 44.112C2.5489 44.672 2.3949 45.3347 2.3949 46.1C2.3949 46.856 2.5489 47.5187 2.8569 48.088C3.1649 48.6573 3.5849 49.1007 4.1169 49.418C4.65823 49.7353 5.26023 49.894 5.9229 49.894C6.3989 49.894 6.8469 49.81 7.2669 49.642C7.6869 49.474 8.0509 49.2407 8.3589 48.942C8.67623 48.6433 8.92357 48.2887 9.1009 47.878V46.814H6.0209V45.666H10.5149V47.948C10.2909 48.5453 9.9549 49.082 9.5069 49.558C9.06823 50.034 8.5409 50.412 7.9249 50.692C7.31823 50.9627 6.6509 51.098 5.9229 51.098C5.23223 51.098 4.58357 50.9767 3.9769 50.734C3.37957 50.4913 2.8569 50.1507 2.4089 49.712C1.9609 49.264 1.6109 48.7367 1.3589 48.13C1.1069 47.514 0.980898 46.8373 0.980898 46.1C0.980898 45.372 1.1069 44.7047 1.3589 44.098C1.6109 43.482 1.9609 42.95 2.4089 42.502C2.8569 42.054 3.37957 41.7087 3.9769 41.466C4.58357 41.2233 5.23223 41.102 5.9229 41.102C6.54823 41.102 7.14557 41.2047 7.7149 41.41C8.28423 41.6153 8.7929 41.914 9.2409 42.306C9.6889 42.698 10.0389 43.1787 10.2909 43.748L9.0729 44.196ZM16.445 51L16.333 49.978C16.1183 50.3327 15.8383 50.608 15.493 50.804C15.157 50.9907 14.7183 51.084 14.177 51.084C13.673 51.084 13.2437 51.0047 12.889 50.846C12.5343 50.678 12.259 50.4493 12.063 50.16C11.8763 49.8613 11.783 49.516 11.783 49.124C11.783 48.536 12.0023 48.0507 12.441 47.668C12.8797 47.276 13.5143 47.0333 14.345 46.94L16.333 46.716V46.17C16.333 45.8713 16.2117 45.6193 15.969 45.414C15.7263 45.1993 15.3763 45.092 14.919 45.092C14.4897 45.092 14.1257 45.1947 13.827 45.4C13.5283 45.596 13.3277 45.89 13.225 46.282L12.049 45.862C12.2263 45.246 12.5717 44.7653 13.085 44.42C13.6077 44.0747 14.2377 43.902 14.975 43.902C15.8523 43.902 16.5197 44.1213 16.977 44.56C17.4343 44.9987 17.663 45.5773 17.663 46.296V51H16.445ZM16.333 47.794L14.415 48.032C14.0043 48.088 13.6963 48.2047 13.491 48.382C13.2857 48.55 13.183 48.774 13.183 49.054C13.183 49.3153 13.281 49.5347 13.477 49.712C13.6823 49.88 13.967 49.964 14.331 49.964C14.779 49.964 15.1523 49.88 15.451 49.712C15.7497 49.544 15.969 49.3107 16.109 49.012C16.2583 48.704 16.333 48.3493 16.333 47.948V47.794ZM19.5578 40.92H20.8738V51H19.5578V40.92ZM22.8801 40.92H24.1961V51H22.8801V40.92ZM29.2403 51.098C28.5683 51.098 27.971 50.944 27.4483 50.636C26.935 50.3187 26.529 49.8847 26.2303 49.334C25.941 48.7833 25.7963 48.1533 25.7963 47.444C25.7963 46.7627 25.941 46.156 26.2303 45.624C26.5197 45.092 26.9163 44.672 27.4203 44.364C27.9337 44.056 28.5123 43.902 29.1563 43.902C29.8097 43.902 30.3883 44.0467 30.8923 44.336C31.3963 44.616 31.7883 45.0127 32.0683 45.526C32.3483 46.03 32.4837 46.6133 32.4743 47.276C32.4743 47.388 32.4697 47.5047 32.4603 47.626C32.451 47.738 32.437 47.864 32.4183 48.004H27.2383C27.2663 48.3773 27.369 48.7087 27.5463 48.998C27.733 49.278 27.9663 49.4973 28.2463 49.656C28.5357 49.8147 28.8623 49.894 29.2263 49.894C29.693 49.894 30.099 49.8053 30.4443 49.628C30.7897 49.4413 31.0323 49.194 31.1723 48.886L32.3203 49.292C32.0403 49.8613 31.6297 50.3047 31.0883 50.622C30.5563 50.9393 29.9403 51.098 29.2403 51.098ZM31.0323 46.87C31.0323 46.534 30.9483 46.2307 30.7803 45.96C30.6123 45.6893 30.3837 45.4793 30.0943 45.33C29.8143 45.1713 29.497 45.092 29.1423 45.092C28.825 45.092 28.531 45.1713 28.2603 45.33C27.999 45.4793 27.775 45.6893 27.5883 45.96C27.411 46.2213 27.299 46.5247 27.2523 46.87H31.0323ZM34.091 44H35.295L35.379 44.938C35.575 44.6953 35.799 44.4947 36.051 44.336C36.3123 44.168 36.5923 44.0513 36.891 43.986C37.199 43.9207 37.5163 43.9253 37.843 44V45.246C37.535 45.1713 37.2363 45.162 36.947 45.218C36.6577 45.274 36.3963 45.3953 36.163 45.582C35.939 45.7593 35.757 45.9973 35.617 46.296C35.477 46.5947 35.407 46.954 35.407 47.374V51H34.091V44ZM43.9509 44H45.3229L41.2629 53.8H39.9609L41.1929 50.86L38.4209 44H39.8769L41.9069 49.306L43.9509 44Z" fill="white"/>
<defs>
<clipPath id="clip0_4_12466">
<rect width="30" height="30" fill="white" transform="translate(8)"/>
</clipPath>
</defs>
</svg>
