<svg width="34" height="34" viewBox="0 0 34 34" fill="none" xmlns="http://www.w3.org/2000/svg">
<g clip-path="url(#clip0_85_6042)">
<path d="M28.9 0H5.1C2.28335 0 0 2.28335 0 5.1V28.9C0 31.7167 2.28335 34 5.1 34H28.9C31.7167 34 34 31.7167 34 28.9V5.1C34 2.28335 31.7167 0 28.9 0Z" fill="white"/>
<path d="M25.6328 26.5625C28.6211 23.7734 29.9492 19.125 29.1523 14.6758H17.2656V19.5898H24.0391C23.7734 21.1836 22.8438 22.5117 21.5156 23.375L25.6328 26.5625Z" fill="#4285F4"/>
<path d="M5.97656 22.6445C6.85014 24.3654 8.10296 25.8655 9.64059 27.0317C11.1782 28.1979 12.9605 28.9999 14.8532 29.3772C16.7458 29.7544 18.6994 29.6971 20.5667 29.2095C22.434 28.722 24.1662 27.8169 25.6328 26.5625L21.5156 23.375C17.9961 25.6992 12.1523 24.8359 10.1602 19.3906L5.97656 22.6445Z" fill="#34A853"/>
<path d="M10.1605 19.3906C9.62924 17.7305 9.62924 16.2031 10.1605 14.543L5.9769 11.2891C4.44955 14.3438 3.98471 18.6602 5.9769 22.6445L10.1605 19.3906Z" fill="#FBBC02"/>
<path d="M10.1602 14.5428C11.6211 9.96079 17.8633 7.30454 22.0469 11.2225L25.6992 7.63657C20.5195 2.65611 10.4258 2.85532 5.97656 11.2889L10.1602 14.5428Z" fill="#EA4335"/>
</g>
<defs>
<clipPath id="clip0_85_6042">
<rect width="34" height="34" rx="17" fill="white"/>
</clipPath>
</defs>
</svg>
