<svg width="20" height="20" viewBox="0 0 20 20" fill="none" xmlns="http://www.w3.org/2000/svg">
<g clip-path="url(#clip0_4_4911)">
<path d="M9.99998 17.4998C9.8903 17.5004 9.78158 17.4794 9.68005 17.4379C9.57852 17.3964 9.48618 17.3353 9.40831 17.2581L2.93331 10.7748C2.12111 9.95408 1.66553 8.84608 1.66553 7.69144C1.66553 6.5368 2.12111 5.42879 2.93331 4.6081C3.75186 3.79186 4.86067 3.3335 6.01664 3.3335C7.17262 3.3335 8.28142 3.79186 9.09998 4.6081L9.99998 5.5081L10.9 4.6081C11.7185 3.79186 12.8273 3.3335 13.9833 3.3335C15.1393 3.3335 16.2481 3.79186 17.0666 4.6081C17.8788 5.42879 18.3344 6.5368 18.3344 7.69144C18.3344 8.84608 17.8788 9.95408 17.0666 10.7748L10.5916 17.2581C10.5138 17.3353 10.4214 17.3964 10.3199 17.4379C10.2184 17.4794 10.1096 17.5004 9.99998 17.4998ZM6.01664 4.99977C5.66387 4.99817 5.31429 5.06659 4.98815 5.20105C4.66201 5.33551 4.36578 5.53335 4.11664 5.7831C3.61336 6.28904 3.33084 6.97364 3.33084 7.68727C3.33084 8.4009 3.61336 9.0855 4.11664 9.59144L9.99998 15.4831L15.8833 9.59144C16.3866 9.0855 16.6691 8.4009 16.6691 7.68727C16.6691 6.97364 16.3866 6.28904 15.8833 5.7831C15.3697 5.29786 14.6899 5.02752 13.9833 5.02752C13.2767 5.02752 12.5969 5.29786 12.0833 5.7831L10.5916 7.2831C10.5142 7.36121 10.422 7.42321 10.3205 7.46551C10.2189 7.50782 10.11 7.5296 9.99998 7.5296C9.88997 7.5296 9.78104 7.50782 9.67949 7.46551C9.57795 7.42321 9.48578 7.36121 9.40831 7.2831L7.91664 5.7831C7.6675 5.53335 7.37128 5.33551 7.04514 5.20105C6.71899 5.06659 6.36941 4.99817 6.01664 4.99977Z" fill="white"/>
</g>
<defs>
<clipPath id="clip0_4_4911">
<rect width="20" height="20" fill="white"/>
</clipPath>
</defs>
</svg>
