<svg width="29" height="28" viewBox="0 0 29 28" fill="none" xmlns="http://www.w3.org/2000/svg">
<path d="M4 14.8851C4 13.6987 4 13.1055 4.13844 12.5499C4.26116 12.0573 4.46341 11.5881 4.73722 11.1607C5.04612 10.6786 5.47737 10.2713 6.33988 9.45669L9.37321 6.59187C11.1775 4.88785 12.0796 4.03585 13.1087 3.71441C14.0147 3.43146 14.9853 3.43146 15.8913 3.71441C16.9204 4.03585 17.8225 4.88786 19.6268 6.59187L22.6601 9.45669C23.5226 10.2713 23.9539 10.6786 24.2628 11.1607C24.5366 11.5881 24.7388 12.0573 24.8616 12.5499C25 13.1055 25 13.6987 25 14.8851V17.0332C25 19.6468 25 20.9536 24.4914 21.9519C24.044 22.83 23.33 23.5439 22.452 23.9913C21.4537 24.4999 20.1469 24.4999 17.5333 24.4999H11.4667C8.85309 24.4999 7.5463 24.4999 6.54804 23.9913C5.66995 23.5439 4.95605 22.83 4.50864 21.9519C4 20.9536 4 19.6468 4 17.0332V14.8851Z" stroke="#F26522" stroke-width="2" stroke-linecap="round" stroke-linejoin="round"/>
</svg>
