<svg width="29" height="28" viewBox="0 0 29 28" fill="none" xmlns="http://www.w3.org/2000/svg">
<path d="M9.83333 2.33325V4.81565M9.83333 6.99992V4.81565M19.1667 2.33325V4.81565M19.1667 6.99992V4.81565M24.953 11.6666C25 12.5857 25 13.7145 25 15.1666C25 18.4282 25 20.059 24.4672 21.3454C23.7567 23.0606 22.394 24.4233 20.6788 25.1337C19.3924 25.6666 17.7616 25.6666 14.5 25.6666C11.2384 25.6666 9.60761 25.6666 8.32122 25.1337C6.60602 24.4233 5.2433 23.0606 4.53284 21.3454C4 20.059 4 18.4282 4 15.1666C4 13.7145 4 12.5857 4.04702 11.6666M24.953 11.6666C24.8944 10.5212 24.7628 9.7015 24.4672 8.9878C23.7567 7.27261 22.394 5.90989 20.6788 5.19943C20.2337 5.01508 19.7474 4.89451 19.1667 4.81565M24.953 11.6666L4.04702 11.6666M4.04702 11.6666C4.10561 10.5212 4.23722 9.7015 4.53284 8.9878C5.2433 7.27261 6.60602 5.90989 8.32122 5.19943C8.76627 5.01508 9.25256 4.89451 9.83333 4.81565M9.83333 4.81565C10.9312 4.66659 12.3668 4.66659 14.5 4.66659C16.6332 4.66659 18.0688 4.66659 19.1667 4.81565" stroke="#90A4AE" stroke-width="2" stroke-linecap="round" stroke-linejoin="round"/>
</svg>
