<svg width="25" height="25" viewBox="0 0 25 25" fill="none" xmlns="http://www.w3.org/2000/svg">
<path d="M6.25 22.1668C5.83579 22.1668 5.5 22.5026 5.5 22.9168C5.5 23.331 5.83579 23.6668 6.25 23.6668V22.1668ZM18.75 23.6668C19.1642 23.6668 19.5 23.331 19.5 22.9168C19.5 22.5026 19.1642 22.1668 18.75 22.1668V23.6668ZM19.5625 9.896C19.5625 11.6843 18.4216 13.9904 16.852 15.9021C16.0798 16.8426 15.2366 17.6465 14.4414 18.2084C13.623 18.7868 12.95 19.0418 12.5 19.0418V20.5418C13.4172 20.5418 14.4044 20.0713 15.3071 19.4334C16.2331 18.779 17.1722 17.876 18.0113 16.854C19.6644 14.8405 21.0625 12.1987 21.0625 9.896H19.5625ZM12.5 19.0418C12.0651 19.0418 11.3989 18.7756 10.576 18.1578C9.77961 17.5599 8.93428 16.7063 8.15952 15.7139C6.58504 13.6973 5.4375 11.2866 5.4375 9.4909H3.9375C3.9375 11.7862 5.32903 14.526 6.97719 16.637C7.81376 17.7085 8.75067 18.6631 9.67544 19.3574C10.5737 20.0318 11.5677 20.5418 12.5 20.5418V19.0418ZM5.4375 9.4909C5.4375 5.68909 8.81749 2.8335 12.5 2.8335V1.3335C8.12836 1.3335 3.9375 4.72791 3.9375 9.4909H5.4375ZM12.5 2.8335C16.1549 2.8335 19.5625 5.66353 19.5625 9.896H21.0625C21.0625 4.75346 16.8993 1.3335 12.5 1.3335V2.8335ZM14.875 9.37516C14.875 10.6868 13.8117 11.7502 12.5 11.7502V13.2502C14.6401 13.2502 16.375 11.5153 16.375 9.37516H14.875ZM12.5 11.7502C11.1883 11.7502 10.125 10.6868 10.125 9.37516H8.625C8.625 11.5153 10.3599 13.2502 12.5 13.2502V11.7502ZM10.125 9.37516C10.125 8.06349 11.1883 7.00016 12.5 7.00016V5.50016C10.3599 5.50016 8.625 7.23506 8.625 9.37516H10.125ZM12.5 7.00016C13.8117 7.00016 14.875 8.06349 14.875 9.37516H16.375C16.375 7.23506 14.6401 5.50016 12.5 5.50016V7.00016ZM6.25 23.6668H18.75V22.1668H6.25V23.6668Z" fill="#F26522"/>
</svg>
