<svg width="20" height="20" viewBox="0 0 20 20" fill="none" xmlns="http://www.w3.org/2000/svg">
<g clip-path="url(#clip0_4_4947)">
<path d="M15.8335 3.3335H14.1668C13.9458 3.3335 13.7339 3.42129 13.5776 3.57757C13.4213 3.73385 13.3335 3.94582 13.3335 4.16683C13.3335 4.38784 13.4213 4.5998 13.5776 4.75608C13.7339 4.91237 13.9458 5.00016 14.1668 5.00016H15.0002V15.0002H14.1668C13.9458 15.0002 13.7339 15.088 13.5776 15.2442C13.4213 15.4005 13.3335 15.6125 13.3335 15.8335C13.3335 16.0545 13.4213 16.2665 13.5776 16.4228C13.7339 16.579 13.9458 16.6668 14.1668 16.6668H15.8335C16.0545 16.6668 16.2665 16.579 16.4228 16.4228C16.579 16.2665 16.6668 16.0545 16.6668 15.8335V4.16683C16.6668 3.94582 16.579 3.73385 16.4228 3.57757C16.2665 3.42129 16.0545 3.3335 15.8335 3.3335V3.3335Z" fill="white"/>
<path d="M9.83333 6.16683C9.70073 5.99002 9.50331 5.87313 9.28452 5.84187C9.06573 5.81062 8.84348 5.86756 8.66667 6.00017C8.48986 6.13277 8.37297 6.33019 8.34171 6.54898C8.31045 6.76777 8.36739 6.99002 8.5 7.16683L10 9.16683H3.33333C3.11232 9.16683 2.90036 9.25463 2.74408 9.41091C2.5878 9.56719 2.5 9.77915 2.5 10.0002C2.5 10.2212 2.5878 10.4331 2.74408 10.5894C2.90036 10.7457 3.11232 10.8335 3.33333 10.8335H10.075L8.64167 12.8668C8.57772 12.9564 8.53215 13.0577 8.50758 13.165C8.48302 13.2723 8.47994 13.3834 8.49854 13.4918C8.51713 13.6003 8.55703 13.704 8.61592 13.797C8.67482 13.89 8.75154 13.9703 8.84167 14.0335C8.98333 14.1324 9.15223 14.1848 9.325 14.1835C9.45721 14.1829 9.58737 14.1508 9.70474 14.09C9.82211 14.0291 9.92332 13.9412 10 13.8335L12.35 10.5002C12.4543 10.3574 12.5105 10.1853 12.5105 10.0085C12.5105 9.83174 12.4543 9.65955 12.35 9.51683L9.83333 6.16683Z" fill="white"/>
</g>
<defs>
<clipPath id="clip0_4_4947">
<rect width="20" height="20" fill="white"/>
</clipPath>
</defs>
</svg>
