<svg width="20" height="15" viewBox="0 0 20 15" fill="none" xmlns="http://www.w3.org/2000/svg">
<path fill-rule="evenodd" clip-rule="evenodd" d="M2.85714 1.36364C2.85714 1.7253 2.70663 2.07214 2.43872 2.32787C2.17081 2.5836 1.80745 2.72727 1.42857 2.72727C1.04969 2.72727 0.686328 2.5836 0.418419 2.32787C0.15051 2.07214 0 1.7253 0 1.36364C0 1.00198 0.15051 0.655131 0.418419 0.3994C0.686328 0.143668 1.04969 0 1.42857 0C1.80745 0 2.17081 0.143668 2.43872 0.3994C2.70663 0.655131 2.85714 1.00198 2.85714 1.36364ZM1.42857 8.86364C1.80745 8.86364 2.17081 8.71997 2.43872 8.46424C2.70663 8.2085 2.85714 7.86166 2.85714 7.5C2.85714 7.13834 2.70663 6.7915 2.43872 6.53576C2.17081 6.28003 1.80745 6.13636 1.42857 6.13636C1.04969 6.13636 0.686328 6.28003 0.418419 6.53576C0.15051 6.7915 0 7.13834 0 7.5C0 7.86166 0.15051 8.2085 0.418419 8.46424C0.686328 8.71997 1.04969 8.86364 1.42857 8.86364ZM1.42857 15C1.80745 15 2.17081 14.8563 2.43872 14.6006C2.70663 14.3449 2.85714 13.998 2.85714 13.6364C2.85714 13.2747 2.70663 12.9279 2.43872 12.6721C2.17081 12.4164 1.80745 12.2727 1.42857 12.2727C1.04969 12.2727 0.686328 12.4164 0.418419 12.6721C0.15051 12.9279 0 13.2747 0 13.6364C0 13.998 0.15051 14.3449 0.418419 14.6006C0.686328 14.8563 1.04969 15 1.42857 15ZM6.78571 0.340909C6.50155 0.340909 6.22903 0.44866 6.0281 0.640459C5.82717 0.832258 5.71429 1.09239 5.71429 1.36364C5.71429 1.63488 5.82717 1.89502 6.0281 2.08681C6.22903 2.27861 6.50155 2.38636 6.78571 2.38636H18.9286C19.2127 2.38636 19.4853 2.27861 19.6862 2.08681C19.8871 1.89502 20 1.63488 20 1.36364C20 1.09239 19.8871 0.832258 19.6862 0.640459C19.4853 0.44866 19.2127 0.340909 18.9286 0.340909H6.78571ZM5.71429 7.5C5.71429 7.22876 5.82717 6.96862 6.0281 6.77682C6.22903 6.58502 6.50155 6.47727 6.78571 6.47727H18.9286C19.2127 6.47727 19.4853 6.58502 19.6862 6.77682C19.8871 6.96862 20 7.22876 20 7.5C20 7.77124 19.8871 8.03138 19.6862 8.22318C19.4853 8.41498 19.2127 8.52273 18.9286 8.52273H6.78571C6.50155 8.52273 6.22903 8.41498 6.0281 8.22318C5.82717 8.03138 5.71429 7.77124 5.71429 7.5ZM6.78571 12.6136C6.50155 12.6136 6.22903 12.7214 6.0281 12.9132C5.82717 13.105 5.71429 13.3651 5.71429 13.6364C5.71429 13.9076 5.82717 14.1677 6.0281 14.3595C6.22903 14.5513 6.50155 14.6591 6.78571 14.6591H18.9286C19.2127 14.6591 19.4853 14.5513 19.6862 14.3595C19.8871 14.1677 20 13.9076 20 13.6364C20 13.3651 19.8871 13.105 19.6862 12.9132C19.4853 12.7214 19.2127 12.6136 18.9286 12.6136H6.78571Z" fill="#F26522"/>
</svg>
