<svg width="20" height="20" viewBox="0 0 20 20" fill="none" xmlns="http://www.w3.org/2000/svg">
<g clip-path="url(#clip0_4_4914)">
<path d="M16.7667 5.59167L14.4083 3.23333C13.9399 2.76436 13.3045 2.50058 12.6417 2.5H7.35833C6.69552 2.50058 6.06006 2.76436 5.59167 3.23333L3.23333 5.59167C2.76436 6.06006 2.50058 6.69552 2.5 7.35833V15C2.5 15.663 2.76339 16.2989 3.23223 16.7678C3.70107 17.2366 4.33696 17.5 5 17.5H15C15.663 17.5 16.2989 17.2366 16.7678 16.7678C17.2366 16.2989 17.5 15.663 17.5 15V7.35833C17.4994 6.69552 17.2356 6.06006 16.7667 5.59167ZM6.76667 4.40833C6.92636 4.25606 7.13769 4.16974 7.35833 4.16667H12.6417C12.8623 4.16974 13.0736 4.25606 13.2333 4.40833L14.6583 5.83333H5.34167L6.76667 4.40833ZM15 15.8333H5C4.77899 15.8333 4.56702 15.7455 4.41074 15.5893C4.25446 15.433 4.16667 15.221 4.16667 15V7.5H15.8333V15C15.8333 15.221 15.7455 15.433 15.5893 15.5893C15.433 15.7455 15.221 15.8333 15 15.8333Z" fill="white"/>
<path d="M12.4998 9.1665C12.2788 9.1665 12.0669 9.2543 11.9106 9.41058C11.7543 9.56686 11.6665 9.77882 11.6665 9.99984C11.6665 10.4419 11.4909 10.8658 11.1783 11.1783C10.8658 11.4909 10.4419 11.6665 9.99984 11.6665C9.55781 11.6665 9.13389 11.4909 8.82133 11.1783C8.50877 10.8658 8.33317 10.4419 8.33317 9.99984C8.33317 9.77882 8.24537 9.56686 8.08909 9.41058C7.93281 9.2543 7.72085 9.1665 7.49984 9.1665C7.27882 9.1665 7.06686 9.2543 6.91058 9.41058C6.7543 9.56686 6.6665 9.77882 6.6665 9.99984C6.6665 10.8839 7.01769 11.7317 7.64281 12.3569C8.26794 12.982 9.11578 13.3332 9.99984 13.3332C10.8839 13.3332 11.7317 12.982 12.3569 12.3569C12.982 11.7317 13.3332 10.8839 13.3332 9.99984C13.3332 9.77882 13.2454 9.56686 13.0891 9.41058C12.9328 9.2543 12.7209 9.1665 12.4998 9.1665Z" fill="white"/>
</g>
<defs>
<clipPath id="clip0_4_4914">
<rect width="20" height="20" fill="white"/>
</clipPath>
</defs>
</svg>
