<svg width="20" height="20" viewBox="0 0 20 20" fill="none" xmlns="http://www.w3.org/2000/svg">
<g clip-path="url(#clip0_4_8504)">
<path d="M7.49935 9.16667C8.15862 9.16667 8.80309 8.97117 9.35125 8.6049C9.89941 8.23863 10.3267 7.71803 10.5789 7.10895C10.8312 6.49986 10.8973 5.82964 10.7686 5.18303C10.64 4.53643 10.3225 3.94249 9.85637 3.47631C9.3902 3.01014 8.79625 2.69267 8.14965 2.56405C7.50305 2.43543 6.83282 2.50144 6.22374 2.75374C5.61465 3.00603 5.09405 3.43327 4.72778 3.98143C4.36151 4.5296 4.16602 5.17406 4.16602 5.83334C4.16602 6.71739 4.5172 7.56524 5.14233 8.19036C5.76745 8.81548 6.61529 9.16667 7.49935 9.16667ZM7.49935 4.16667C7.82898 4.16667 8.15122 4.26442 8.4253 4.44755C8.69938 4.63069 8.913 4.89099 9.03915 5.19553C9.16529 5.50007 9.1983 5.83518 9.13399 6.15849C9.06968 6.48179 8.91095 6.77876 8.67786 7.01185C8.44477 7.24493 8.1478 7.40367 7.8245 7.46798C7.5012 7.53229 7.16609 7.49928 6.86154 7.37313C6.557 7.24699 6.2967 7.03337 6.11357 6.75929C5.93043 6.4852 5.83268 6.16297 5.83268 5.83334C5.83268 5.39131 6.00828 4.96738 6.32084 4.65482C6.6334 4.34226 7.05732 4.16667 7.49935 4.16667Z" fill="#90A4AE"/>
<path d="M14.166 10.8335C14.6605 10.8335 15.1438 10.6869 15.5549 10.4122C15.9661 10.1375 16.2865 9.74702 16.4757 9.29021C16.6649 8.83339 16.7144 8.33072 16.618 7.84577C16.5215 7.36082 16.2834 6.91536 15.9338 6.56573C15.5842 6.2161 15.1387 5.978 14.6537 5.88153C14.1688 5.78507 13.6661 5.83458 13.2093 6.0238C12.7525 6.21302 12.362 6.53345 12.0873 6.94457C11.8126 7.35569 11.666 7.83904 11.666 8.3335C11.666 8.99654 11.9294 9.63242 12.3982 10.1013C12.8671 10.5701 13.503 10.8335 14.166 10.8335ZM14.166 7.50016C14.3308 7.50016 14.492 7.54904 14.629 7.64061C14.766 7.73217 14.8728 7.86232 14.9359 8.01459C14.999 8.16687 15.0155 8.33442 14.9833 8.49607C14.9512 8.65772 14.8718 8.80621 14.7553 8.92275C14.6387 9.0393 14.4902 9.11866 14.3286 9.15082C14.1669 9.18297 13.9994 9.16647 13.8471 9.1034C13.6948 9.04032 13.5647 8.93351 13.4731 8.79647C13.3816 8.65943 13.3327 8.49831 13.3327 8.3335C13.3327 8.11248 13.4205 7.90052 13.5768 7.74424C13.733 7.58796 13.945 7.50016 14.166 7.50016Z" fill="#90A4AE"/>
<path d="M14.166 11.6668C13.2425 11.6678 12.3456 11.9756 11.616 12.5418C10.7998 11.7287 9.76106 11.1756 8.63087 10.9521C7.50068 10.7286 6.32962 10.8448 5.26537 11.286C4.20113 11.7272 3.29136 12.4737 2.6508 13.4313C2.01024 14.3889 1.66757 15.5147 1.66602 16.6668C1.66602 16.8878 1.75381 17.0997 1.91009 17.256C2.06637 17.4123 2.27834 17.5001 2.49935 17.5001C2.72036 17.5001 2.93232 17.4123 3.0886 17.256C3.24489 17.0997 3.33268 16.8878 3.33268 16.6668C3.33268 15.5617 3.77167 14.5019 4.55307 13.7205C5.33447 12.9391 6.39428 12.5001 7.49935 12.5001C8.60442 12.5001 9.66423 12.9391 10.4456 13.7205C11.227 14.5019 11.666 15.5617 11.666 16.6668C11.666 16.8878 11.7538 17.0997 11.9101 17.256C12.0664 17.4123 12.2783 17.5001 12.4993 17.5001C12.7204 17.5001 12.9323 17.4123 13.0886 17.256C13.2449 17.0997 13.3327 16.8878 13.3327 16.6668C13.3347 15.6904 13.088 14.7297 12.616 13.8751C12.9843 13.5841 13.427 13.4026 13.8936 13.3515C14.3602 13.3003 14.8318 13.3816 15.2543 13.5859C15.6769 13.7902 16.0334 14.1094 16.283 14.5069C16.5327 14.9043 16.6654 15.364 16.666 15.8334C16.666 16.0544 16.7538 16.2664 16.9101 16.4227C17.0664 16.579 17.2783 16.6668 17.4993 16.6668C17.7204 16.6668 17.9323 16.579 18.0886 16.4227C18.2449 16.2664 18.3327 16.0544 18.3327 15.8334C18.3327 14.7284 17.8937 13.6685 17.1123 12.8871C16.3309 12.1057 15.2711 11.6668 14.166 11.6668Z" fill="#90A4AE"/>
</g>
<defs>
<clipPath id="clip0_4_8504">
<rect width="20" height="20" fill="white"/>
</clipPath>
</defs>
</svg>
