<svg width="64" height="64" viewBox="0 0 64 64" fill="none" xmlns="http://www.w3.org/2000/svg">
<circle cx="32" cy="32" r="32" fill="white"/>
<g clip-path="url(#clip0_4_9203)">
<path d="M31.9993 30.6667C33.0542 30.6667 34.0853 30.3539 34.9624 29.7678C35.8395 29.1818 36.523 28.3489 36.9267 27.3743C37.3304 26.3998 37.436 25.3274 37.2302 24.2929C37.0244 23.2583 36.5165 22.308 35.7706 21.5621C35.0247 20.8162 34.0744 20.3083 33.0398 20.1025C32.0053 19.8967 30.9329 20.0023 29.9584 20.406C28.9838 20.8096 28.1509 21.4932 27.5648 22.3703C26.9788 23.2474 26.666 24.2785 26.666 25.3333C26.666 26.7478 27.2279 28.1044 28.2281 29.1046C29.2283 30.1048 30.5849 30.6667 31.9993 30.6667ZM31.9993 22.6667C32.5268 22.6667 33.0423 22.8231 33.4809 23.1161C33.9194 23.4091 34.2612 23.8256 34.463 24.3128C34.6649 24.8001 34.7177 25.3363 34.6148 25.8536C34.5119 26.3709 34.2579 26.846 33.885 27.219C33.512 27.5919 33.0369 27.8459 32.5196 27.9488C32.0023 28.0517 31.4661 27.9988 30.9789 27.797C30.4916 27.5952 30.0751 27.2534 29.7821 26.8149C29.4891 26.3763 29.3327 25.8608 29.3327 25.3333C29.3327 24.6261 29.6136 23.9478 30.1137 23.4477C30.6138 22.9476 31.2921 22.6667 31.9993 22.6667Z" fill="#90A4AE"/>
<path d="M31.9993 33.3335C29.524 33.3335 27.15 34.3168 25.3997 36.0672C23.6493 37.8175 22.666 40.1915 22.666 42.6668C22.666 43.0205 22.8065 43.3596 23.0565 43.6096C23.3066 43.8597 23.6457 44.0002 23.9993 44.0002C24.353 44.0002 24.6921 43.8597 24.9422 43.6096C25.1922 43.3596 25.3327 43.0205 25.3327 42.6668C25.3327 40.8987 26.0351 39.203 27.2853 37.9528C28.5355 36.7025 30.2312 36.0002 31.9993 36.0002C33.7675 36.0002 35.4632 36.7025 36.7134 37.9528C37.9636 39.203 38.666 40.8987 38.666 42.6668C38.666 43.0205 38.8065 43.3596 39.0565 43.6096C39.3066 43.8597 39.6457 44.0002 39.9993 44.0002C40.353 44.0002 40.6921 43.8597 40.9422 43.6096C41.1922 43.3596 41.3327 43.0205 41.3327 42.6668C41.3327 40.1915 40.3494 37.8175 38.599 36.0672C36.8487 34.3168 34.4747 33.3335 31.9993 33.3335Z" fill="#90A4AE"/>
</g>
<defs>
<clipPath id="clip0_4_9203">
<rect width="32" height="32" fill="white" transform="translate(16 16)"/>
</clipPath>
</defs>
</svg>
