<svg width="20" height="20" viewBox="0 0 20 20" fill="none" xmlns="http://www.w3.org/2000/svg">
<g clip-path="url(#clip0_4_4929)">
<path d="M17.5002 5.00016H16.6668V4.16683C16.6668 3.94582 16.579 3.73385 16.4228 3.57757C16.2665 3.42129 16.0545 3.3335 15.8335 3.3335C15.6125 3.3335 15.4005 3.42129 15.2442 3.57757C15.088 3.73385 15.0002 3.94582 15.0002 4.16683V5.00016H14.1668C13.9458 5.00016 13.7339 5.08796 13.5776 5.24424C13.4213 5.40052 13.3335 5.61248 13.3335 5.8335C13.3335 6.05451 13.4213 6.26647 13.5776 6.42275C13.7339 6.57903 13.9458 6.66683 14.1668 6.66683H15.0002V7.50016C15.0002 7.72118 15.088 7.93314 15.2442 8.08942C15.4005 8.2457 15.6125 8.3335 15.8335 8.3335C16.0545 8.3335 16.2665 8.2457 16.4228 8.08942C16.579 7.93314 16.6668 7.72118 16.6668 7.50016V6.66683H17.5002C17.7212 6.66683 17.9331 6.57903 18.0894 6.42275C18.2457 6.26647 18.3335 6.05451 18.3335 5.8335C18.3335 5.61248 18.2457 5.40052 18.0894 5.24424C17.9331 5.08796 17.7212 5.00016 17.5002 5.00016Z" fill="white"/>
<path d="M8.33333 9.16667C8.9926 9.16667 9.63707 8.97117 10.1852 8.6049C10.7334 8.23863 11.1606 7.71803 11.4129 7.10895C11.6652 6.49986 11.7312 5.82964 11.6026 5.18303C11.474 4.53643 11.1565 3.94249 10.6904 3.47631C10.2242 3.01014 9.63024 2.69267 8.98363 2.56405C8.33703 2.43543 7.66681 2.50144 7.05772 2.75374C6.44863 3.00603 5.92804 3.43327 5.56177 3.98143C5.1955 4.5296 5 5.17406 5 5.83334C5 6.71739 5.35119 7.56524 5.97631 8.19036C6.60143 8.81548 7.44928 9.16667 8.33333 9.16667ZM8.33333 4.16667C8.66297 4.16667 8.9852 4.26442 9.25928 4.44755C9.53337 4.63069 9.74699 4.89099 9.87313 5.19553C9.99928 5.50007 10.0323 5.83518 9.96798 6.15849C9.90367 6.48179 9.74493 6.77876 9.51184 7.01185C9.27876 7.24493 8.98179 7.40367 8.65848 7.46798C8.33518 7.53229 8.00007 7.49928 7.69553 7.37313C7.39098 7.24699 7.13069 7.03337 6.94755 6.75929C6.76442 6.4852 6.66667 6.16297 6.66667 5.83334C6.66667 5.39131 6.84226 4.96738 7.15482 4.65482C7.46738 4.34226 7.89131 4.16667 8.33333 4.16667Z" fill="white"/>
<path d="M8.33333 10.8335C6.78624 10.8335 5.30251 11.4481 4.20854 12.542C3.11458 13.636 2.5 15.1197 2.5 16.6668C2.5 16.8878 2.5878 17.0998 2.74408 17.2561C2.90036 17.4124 3.11232 17.5002 3.33333 17.5002C3.55435 17.5002 3.76631 17.4124 3.92259 17.2561C4.07887 17.0998 4.16667 16.8878 4.16667 16.6668C4.16667 15.5618 4.60565 14.502 5.38706 13.7206C6.16846 12.9391 7.22826 12.5002 8.33333 12.5002C9.4384 12.5002 10.4982 12.9391 11.2796 13.7206C12.061 14.502 12.5 15.5618 12.5 16.6668C12.5 16.8878 12.5878 17.0998 12.7441 17.2561C12.9004 17.4124 13.1123 17.5002 13.3333 17.5002C13.5543 17.5002 13.7663 17.4124 13.9226 17.2561C14.0789 17.0998 14.1667 16.8878 14.1667 16.6668C14.1667 15.1197 13.5521 13.636 12.4581 12.542C11.3642 11.4481 9.88043 10.8335 8.33333 10.8335Z" fill="white"/>
</g>
<defs>
<clipPath id="clip0_4_4929">
<rect width="20" height="20" fill="white"/>
</clipPath>
</defs>
</svg>
