<svg width="20" height="20" viewBox="0 0 20 20" fill="none" xmlns="http://www.w3.org/2000/svg">
<g clip-path="url(#clip0_4_4944)">
<path d="M10.8333 6.66667C11.4964 6.66667 12.1323 6.93006 12.6011 7.3989C13.0699 7.86774 13.3333 8.50363 13.3333 9.16667C13.3333 9.38768 13.4211 9.59964 13.5774 9.75592C13.7337 9.9122 13.9457 10 14.1667 10C14.3877 10 14.5996 9.9122 14.7559 9.75592C14.9122 9.59964 15 9.38768 15 9.16667C15 8.0616 14.561 7.00179 13.7796 6.22039C12.9982 5.43899 11.9384 5 10.8333 5C10.6123 5 10.4004 5.0878 10.2441 5.24408C10.0878 5.40036 10 5.61232 10 5.83333C10 6.05435 10.0878 6.26631 10.2441 6.42259C10.4004 6.57887 10.6123 6.66667 10.8333 6.66667V6.66667Z" fill="white"/>
<path d="M10.8333 3.33317C12.3804 3.33317 13.8642 3.94775 14.9581 5.04171C16.0521 6.13568 16.6667 7.61941 16.6667 9.1665C16.6667 9.38752 16.7545 9.59948 16.9107 9.75576C17.067 9.91204 17.279 9.99984 17.5 9.99984C17.721 9.99984 17.933 9.91204 18.0893 9.75576C18.2455 9.59948 18.3333 9.38752 18.3333 9.1665C18.3333 7.17738 17.5432 5.26973 16.1366 3.8632C14.7301 2.45668 12.8225 1.6665 10.8333 1.6665C10.6123 1.6665 10.4004 1.7543 10.2441 1.91058C10.0878 2.06686 10 2.27882 10 2.49984C10 2.72085 10.0878 2.93281 10.2441 3.08909C10.4004 3.24537 10.6123 3.33317 10.8333 3.33317V3.33317Z" fill="white"/>
<path d="M18.1248 13.2582C18.079 13.1244 17.9999 13.0045 17.8949 12.9097C17.7899 12.815 17.6626 12.7485 17.5248 12.7165L12.5248 11.5748C12.3891 11.5441 12.2479 11.5478 12.1139 11.5856C11.98 11.6235 11.8577 11.6942 11.7582 11.7915C11.6415 11.8998 11.6332 11.9082 11.0915 12.9415C9.29417 12.1133 7.854 10.6672 7.03317 8.8665C8.0915 8.33317 8.09984 8.33317 8.20817 8.20817C8.30543 8.10863 8.37621 7.98633 8.41406 7.85241C8.4519 7.71849 8.45561 7.57722 8.42484 7.4415L7.28317 2.49984C7.25121 2.36208 7.18472 2.23473 7.08996 2.12976C6.9952 2.0248 6.87528 1.94567 6.7415 1.89984C6.54689 1.83033 6.34593 1.78009 6.1415 1.74984C5.93088 1.701 5.71595 1.67309 5.49984 1.6665C4.48317 1.6665 3.50815 2.07037 2.78926 2.78926C2.07037 3.50815 1.6665 4.48317 1.6665 5.49984C1.67091 8.9021 3.02441 12.1637 5.43017 14.5695C7.83593 16.9753 11.0976 18.3288 14.4998 18.3332C15.0032 18.3332 15.5017 18.234 15.9668 18.0414C16.4319 17.8487 16.8545 17.5664 17.2104 17.2104C17.5664 16.8545 17.8487 16.4319 18.0414 15.9668C18.234 15.5017 18.3332 15.0032 18.3332 14.4998C18.3334 14.2877 18.3167 14.0759 18.2832 13.8665C18.2481 13.6595 18.1952 13.456 18.1248 13.2582V13.2582ZM14.4998 16.6665C11.5389 16.6643 8.69993 15.4871 6.60625 13.3934C4.51257 11.2997 3.33538 8.46074 3.33317 5.49984C3.33537 4.92588 3.56434 4.37605 3.9702 3.9702C4.37605 3.56434 4.92588 3.33537 5.49984 3.33317H5.77484L6.6665 7.19984L6.2165 7.43317C5.49984 7.80817 4.93317 8.10817 5.23317 8.75817C5.72169 10.1412 6.51215 11.3979 7.54712 12.4372C8.58208 13.4765 9.83557 14.2722 11.2165 14.7665C11.9165 15.0498 12.1915 14.5248 12.5665 13.7998L12.8082 13.3415L16.6665 14.2248V14.4998C16.6643 15.0738 16.4353 15.6236 16.0295 16.0295C15.6236 16.4353 15.0738 16.6643 14.4998 16.6665V16.6665Z" fill="white"/>
</g>
<defs>
<clipPath id="clip0_4_4944">
<rect width="20" height="20" fill="white"/>
</clipPath>
</defs>
</svg>
