<svg width="108" height="56" viewBox="0 0 108 56" fill="none" xmlns="http://www.w3.org/2000/svg">
<g clip-path="url(#clip0_4_12470)">
<path d="M57.75 20H50.25C49.9185 20 49.6005 20.1317 49.3661 20.3661C49.1317 20.6005 49 20.9185 49 21.25C49 21.5815 49.1317 21.8995 49.3661 22.1339C49.6005 22.3683 49.9185 22.5 50.25 22.5H57.75C58.0815 22.5 58.3995 22.3683 58.6339 22.1339C58.8683 21.8995 59 21.5815 59 21.25C59 20.9185 58.8683 20.6005 58.6339 20.3661C58.3995 20.1317 58.0815 20 57.75 20Z" fill="white"/>
<path d="M50.25 17.5H54C54.3315 17.5 54.6495 17.3683 54.8839 17.1339C55.1183 16.8995 55.25 16.5815 55.25 16.25C55.25 15.9185 55.1183 15.6005 54.8839 15.3661C54.6495 15.1317 54.3315 15 54 15H50.25C49.9185 15 49.6005 15.1317 49.3661 15.3661C49.1317 15.6005 49 15.9185 49 16.25C49 16.5815 49.1317 16.8995 49.3661 17.1339C49.6005 17.3683 49.9185 17.5 50.25 17.5Z" fill="white"/>
<path d="M63.675 10.4127L56.875 2.91272C56.7581 2.78323 56.6155 2.67964 56.4562 2.60859C56.2968 2.53755 56.1244 2.50064 55.95 2.50022H47.2C46.7847 2.49527 46.3725 2.57218 45.9869 2.72655C45.6013 2.88092 45.2499 3.10973 44.9527 3.39992C44.6556 3.69011 44.4185 4.03599 44.255 4.41781C44.0916 4.79963 44.0049 5.20991 44 5.62523V24.3752C44.0049 24.7905 44.0916 25.2008 44.255 25.5826C44.4185 25.9645 44.6556 26.3103 44.9527 26.6005C45.2499 26.8907 45.6013 27.1195 45.9869 27.2739C46.3725 27.4283 46.7847 27.5052 47.2 27.5002H60.8C61.2153 27.5052 61.6275 27.4283 62.0131 27.2739C62.3987 27.1195 62.7501 26.8907 63.0473 26.6005C63.3444 26.3103 63.5815 25.9645 63.745 25.5826C63.9084 25.2008 63.9951 24.7905 64 24.3752V11.2502C63.9992 10.9404 63.8834 10.642 63.675 10.4127ZM56.5 6.25023L59.925 10.0002H57.425C57.2941 9.99232 57.1661 9.95843 57.0484 9.90051C56.9308 9.8426 56.8258 9.76184 56.7397 9.66293C56.6536 9.56402 56.5881 9.44895 56.5469 9.32444C56.5057 9.19993 56.4898 9.06847 56.5 8.93773V6.25023ZM60.8 25.0002H47.2C47.113 25.0053 47.0258 24.9931 46.9435 24.9644C46.8611 24.9357 46.7853 24.8911 46.7203 24.833C46.6552 24.775 46.6023 24.7046 46.5645 24.6261C46.5267 24.5475 46.5048 24.4623 46.5 24.3752V5.62523C46.5048 5.53818 46.5267 5.45293 46.5645 5.37437C46.6023 5.29581 46.6552 5.22548 46.7203 5.16742C46.7853 5.10936 46.8611 5.0647 46.9435 5.03601C47.0258 5.00732 47.113 4.99516 47.2 5.00023H54V8.93773C53.9798 9.8585 54.3247 10.7499 54.9593 11.4173C55.594 12.0847 56.4669 12.474 57.3875 12.5002H61.5V24.3752C61.4952 24.4623 61.4733 24.5475 61.4355 24.6261C61.3977 24.7046 61.3448 24.775 61.2797 24.833C61.2147 24.8911 61.1389 24.9357 61.0565 24.9644C60.9742 24.9931 60.887 25.0053 60.8 25.0002Z" fill="white"/>
</g>
<path d="M2.53627 51H1.13627V41.2H2.67627L6.16227 49.138L9.63427 41.2H11.1603V51H9.77427V43.916L6.66627 51H5.64427L2.53627 43.916V51ZM18.0486 44H19.4206L15.3606 53.8H14.0586L15.2906 50.86L12.5186 44H13.9746L16.0046 49.306L18.0486 44ZM25.7846 49.81L25.9246 49.768V53.8H24.6086V44H25.8126L25.9106 45.05C26.1346 44.7327 26.4426 44.462 26.8346 44.238C27.2359 44.014 27.7213 43.902 28.2906 43.902C28.9066 43.902 29.4526 44.0513 29.9286 44.35C30.4046 44.6487 30.7779 45.0687 31.0486 45.61C31.3286 46.142 31.4686 46.772 31.4686 47.5C31.4686 48.2187 31.3333 48.8487 31.0626 49.39C30.8013 49.9313 30.4326 50.3513 29.9566 50.65C29.4806 50.9487 28.9253 51.098 28.2906 51.098C27.6839 51.098 27.1659 50.9767 26.7366 50.734C26.3166 50.482 25.9993 50.174 25.7846 49.81ZM30.0406 47.5C30.0406 46.7813 29.8493 46.2027 29.4666 45.764C29.0933 45.3253 28.6033 45.106 27.9966 45.106C27.6046 45.106 27.2546 45.1993 26.9466 45.386C26.6386 45.5727 26.3913 45.8433 26.2046 46.198C26.0179 46.5527 25.9246 46.9867 25.9246 47.5C25.9246 48.004 26.0179 48.4333 26.2046 48.788C26.3913 49.1427 26.6386 49.418 26.9466 49.614C27.2546 49.8007 27.6046 49.894 27.9966 49.894C28.6033 49.894 29.0933 49.6747 29.4666 49.236C29.8493 48.7973 30.0406 48.2187 30.0406 47.5ZM33.0578 44H34.2618L34.3458 44.938C34.5418 44.6953 34.7658 44.4947 35.0178 44.336C35.2791 44.168 35.5591 44.0513 35.8578 43.986C36.1658 43.9207 36.4831 43.9253 36.8098 44V45.246C36.5018 45.1713 36.2031 45.162 35.9138 45.218C35.6245 45.274 35.3631 45.3953 35.1298 45.582C34.9058 45.7593 34.7238 45.9973 34.5838 46.296C34.4438 46.5947 34.3738 46.954 34.3738 47.374V51H33.0578V44ZM41.045 51.098C40.373 51.098 39.7757 50.944 39.253 50.636C38.7397 50.3187 38.3337 49.8847 38.035 49.334C37.7457 48.7833 37.601 48.1533 37.601 47.444C37.601 46.7627 37.7457 46.156 38.035 45.624C38.3244 45.092 38.721 44.672 39.225 44.364C39.7384 44.056 40.317 43.902 40.961 43.902C41.6144 43.902 42.193 44.0467 42.697 44.336C43.201 44.616 43.593 45.0127 43.873 45.526C44.153 46.03 44.2884 46.6133 44.279 47.276C44.279 47.388 44.2744 47.5047 44.265 47.626C44.2557 47.738 44.2417 47.864 44.223 48.004H39.043C39.071 48.3773 39.1737 48.7087 39.351 48.998C39.5377 49.278 39.771 49.4973 40.051 49.656C40.3404 49.8147 40.667 49.894 41.031 49.894C41.4977 49.894 41.9037 49.8053 42.249 49.628C42.5944 49.4413 42.837 49.194 42.977 48.886L44.125 49.292C43.845 49.8613 43.4344 50.3047 42.893 50.622C42.361 50.9393 41.745 51.098 41.045 51.098ZM42.837 46.87C42.837 46.534 42.753 46.2307 42.585 45.96C42.417 45.6893 42.1884 45.4793 41.899 45.33C41.619 45.1713 41.3017 45.092 40.947 45.092C40.6297 45.092 40.3357 45.1713 40.065 45.33C39.8037 45.4793 39.5797 45.6893 39.393 45.96C39.2157 46.2213 39.1037 46.5247 39.057 46.87H42.837ZM46.6797 48.788C46.745 49.068 46.857 49.2873 47.0157 49.446C47.1744 49.6047 47.361 49.7213 47.5757 49.796C47.7997 49.8613 48.033 49.894 48.2757 49.894C48.6957 49.894 49.0224 49.81 49.2557 49.642C49.489 49.474 49.6057 49.264 49.6057 49.012C49.6057 48.7973 49.531 48.6293 49.3817 48.508C49.2417 48.3773 49.0504 48.2747 48.8077 48.2C48.5744 48.1253 48.3224 48.0553 48.0517 47.99C47.809 47.9247 47.543 47.85 47.2537 47.766C46.9737 47.682 46.7077 47.57 46.4557 47.43C46.213 47.2807 46.0124 47.094 45.8537 46.87C45.695 46.6367 45.6157 46.3427 45.6157 45.988C45.6157 45.568 45.7277 45.204 45.9517 44.896C46.185 44.5787 46.5024 44.336 46.9037 44.168C47.3144 43.9907 47.7764 43.902 48.2897 43.902C48.887 43.902 49.4097 44.0327 49.8577 44.294C50.315 44.546 50.6464 44.9287 50.8517 45.442L49.6617 45.834C49.5964 45.6567 49.489 45.512 49.3397 45.4C49.1904 45.288 49.0177 45.2133 48.8217 45.176C48.635 45.1293 48.4484 45.106 48.2617 45.106C47.907 45.106 47.613 45.176 47.3797 45.316C47.1464 45.456 47.0297 45.6613 47.0297 45.932C47.0297 46.0813 47.067 46.2073 47.1417 46.31C47.2164 46.4033 47.319 46.4827 47.4497 46.548C47.5897 46.604 47.753 46.6553 47.9397 46.702C48.1264 46.7487 48.327 46.8 48.5417 46.856C48.8217 46.94 49.1064 47.0333 49.3957 47.136C49.685 47.2293 49.951 47.3507 50.1937 47.5C50.4364 47.6493 50.6324 47.8453 50.7817 48.088C50.931 48.3307 51.0104 48.6293 51.0197 48.984C51.0197 49.3947 50.903 49.7587 50.6697 50.076C50.4457 50.3933 50.1237 50.6453 49.7037 50.832C49.293 51.0093 48.803 51.098 48.2337 51.098C47.543 51.098 46.955 50.944 46.4697 50.636C45.9844 50.328 45.6577 49.852 45.4897 49.208L46.6797 48.788ZM55.6183 51.098C54.9463 51.098 54.3536 50.9487 53.8403 50.65C53.3269 50.342 52.9256 49.922 52.6363 49.39C52.3563 48.858 52.2163 48.2373 52.2163 47.528C52.2163 46.8093 52.3609 46.1793 52.6503 45.638C52.9396 45.0967 53.3409 44.672 53.8543 44.364C54.3676 44.056 54.9649 43.902 55.6463 43.902C56.3649 43.902 56.9949 44.07 57.5363 44.406C58.0869 44.742 58.4836 45.1947 58.7263 45.764L57.5363 46.184C57.3963 45.8573 57.1583 45.596 56.8223 45.4C56.4956 45.204 56.1223 45.106 55.7023 45.106C55.2729 45.106 54.9043 45.2087 54.5963 45.414C54.2883 45.61 54.0503 45.89 53.8823 46.254C53.7143 46.6087 53.6303 47.0287 53.6303 47.514C53.6303 48.242 53.8169 48.8207 54.1903 49.25C54.5636 49.6793 55.0676 49.894 55.7023 49.894C56.1223 49.894 56.4956 49.8007 56.8223 49.614C57.1583 49.4273 57.4103 49.1707 57.5783 48.844L58.7543 49.264C58.4929 49.824 58.0823 50.272 57.5223 50.608C56.9623 50.9347 56.3276 51.098 55.6183 51.098ZM60.3605 44H61.5645L61.6485 44.938C61.8445 44.6953 62.0685 44.4947 62.3205 44.336C62.5819 44.168 62.8619 44.0513 63.1605 43.986C63.4685 43.9207 63.7859 43.9253 64.1125 44V45.246C63.8045 45.1713 63.5059 45.162 63.2165 45.218C62.9272 45.274 62.6659 45.3953 62.4325 45.582C62.2085 45.7593 62.0265 45.9973 61.8865 46.296C61.7465 46.5947 61.6765 46.954 61.6765 47.374V51H60.3605V44ZM65.6565 44H66.9865V51H65.6565V44ZM66.3285 42.768C66.0765 42.768 65.8665 42.684 65.6985 42.516C65.5305 42.348 65.4465 42.1427 65.4465 41.9C65.4465 41.648 65.5305 41.438 65.6985 41.27C65.8665 41.0927 66.0765 41.004 66.3285 41.004C66.5711 41.004 66.7765 41.0927 66.9445 41.27C67.1218 41.438 67.2105 41.648 67.2105 41.9C67.2105 42.1427 67.1218 42.348 66.9445 42.516C66.7765 42.684 66.5711 42.768 66.3285 42.768ZM70.3686 49.81L70.5086 49.768V53.8H69.1926V44H70.3966L70.4946 45.05C70.7186 44.7327 71.0266 44.462 71.4186 44.238C71.8199 44.014 72.3052 43.902 72.8746 43.902C73.4906 43.902 74.0366 44.0513 74.5126 44.35C74.9886 44.6487 75.3619 45.0687 75.6326 45.61C75.9126 46.142 76.0526 46.772 76.0526 47.5C76.0526 48.2187 75.9172 48.8487 75.6466 49.39C75.3852 49.9313 75.0166 50.3513 74.5406 50.65C74.0646 50.9487 73.5092 51.098 72.8746 51.098C72.2679 51.098 71.7499 50.9767 71.3206 50.734C70.9006 50.482 70.5832 50.174 70.3686 49.81ZM74.6246 47.5C74.6246 46.7813 74.4332 46.2027 74.0506 45.764C73.6772 45.3253 73.1872 45.106 72.5806 45.106C72.1886 45.106 71.8386 45.1993 71.5306 45.386C71.2226 45.5727 70.9752 45.8433 70.7886 46.198C70.6019 46.5527 70.5086 46.9867 70.5086 47.5C70.5086 48.004 70.6019 48.4333 70.7886 48.788C70.9752 49.1427 71.2226 49.418 71.5306 49.614C71.8386 49.8007 72.1886 49.894 72.5806 49.894C73.1872 49.894 73.6772 49.6747 74.0506 49.236C74.4332 48.7973 74.6246 48.2187 74.6246 47.5ZM77.8574 44V42.04H79.1874V44H80.9374V45.176H79.1874V48.62C79.1874 49.0493 79.2714 49.3527 79.4394 49.53C79.6167 49.7073 79.836 49.81 80.0974 49.838C80.368 49.8567 80.648 49.8473 80.9374 49.81V50.944C80.5547 51.028 80.1767 51.0513 79.8034 51.014C79.4394 50.986 79.108 50.8833 78.8094 50.706C78.52 50.5287 78.2867 50.272 78.1094 49.936C77.9414 49.5907 77.8574 49.152 77.8574 48.62V45.176H76.8494V44H77.8574ZM82.6233 44H83.9533V51H82.6233V44ZM83.2953 42.768C83.0433 42.768 82.8333 42.684 82.6653 42.516C82.4973 42.348 82.4133 42.1427 82.4133 41.9C82.4133 41.648 82.4973 41.438 82.6653 41.27C82.8333 41.0927 83.0433 41.004 83.2953 41.004C83.5379 41.004 83.7433 41.0927 83.9113 41.27C84.0886 41.438 84.1773 41.648 84.1773 41.9C84.1773 42.1427 84.0886 42.348 83.9113 42.516C83.7433 42.684 83.5379 42.768 83.2953 42.768ZM89.2254 51.098C88.5627 51.098 87.9654 50.9533 87.4334 50.664C86.9107 50.3653 86.5 49.95 86.2014 49.418C85.9027 48.8767 85.7534 48.242 85.7534 47.514C85.7534 46.7767 85.9074 46.1373 86.2154 45.596C86.5234 45.0547 86.9434 44.6393 87.4754 44.35C88.0074 44.0513 88.6047 43.902 89.2674 43.902C89.93 43.902 90.5274 44.0513 91.0594 44.35C91.6007 44.6393 92.0254 45.0547 92.3334 45.596C92.6414 46.128 92.7954 46.758 92.7954 47.486C92.7954 48.2233 92.6367 48.8627 92.3194 49.404C92.0114 49.9453 91.5867 50.3653 91.0454 50.664C90.504 50.9533 89.8974 51.098 89.2254 51.098ZM89.2114 49.894C89.5847 49.894 89.9347 49.81 90.2614 49.642C90.588 49.4647 90.854 49.1987 91.0594 48.844C91.274 48.4893 91.3814 48.0367 91.3814 47.486C91.3814 46.9447 91.2787 46.5013 91.0734 46.156C90.8774 45.8013 90.616 45.54 90.2894 45.372C89.9627 45.1947 89.6127 45.106 89.2394 45.106C88.8754 45.106 88.5347 45.1947 88.2174 45.372C87.9094 45.54 87.6574 45.8013 87.4614 46.156C87.2654 46.5107 87.1674 46.9633 87.1674 47.514C87.1674 48.0553 87.2607 48.5033 87.4474 48.858C87.6434 49.2033 87.8954 49.4647 88.2034 49.642C88.5114 49.81 88.8474 49.894 89.2114 49.894ZM94.4035 44H95.6075L95.6915 44.812C95.9155 44.5227 96.2002 44.2987 96.5455 44.14C96.8908 43.9813 97.2735 43.902 97.6935 43.902C98.2348 43.902 98.7015 44.0187 99.0935 44.252C99.4948 44.476 99.8028 44.812 100.018 45.26C100.242 45.708 100.354 46.268 100.354 46.94V51H99.0375V47.108C99.0375 46.4547 98.8975 45.96 98.6175 45.624C98.3468 45.2787 97.9502 45.106 97.4275 45.106C96.8862 45.106 96.4662 45.2833 96.1675 45.638C95.8688 45.9833 95.7195 46.4967 95.7195 47.178V51H94.4035V44ZM103.035 48.788C103.1 49.068 103.212 49.2873 103.371 49.446C103.53 49.6047 103.716 49.7213 103.931 49.796C104.155 49.8613 104.388 49.894 104.631 49.894C105.051 49.894 105.378 49.81 105.611 49.642C105.844 49.474 105.961 49.264 105.961 49.012C105.961 48.7973 105.886 48.6293 105.737 48.508C105.597 48.3773 105.406 48.2747 105.163 48.2C104.93 48.1253 104.678 48.0553 104.407 47.99C104.164 47.9247 103.898 47.85 103.609 47.766C103.329 47.682 103.063 47.57 102.811 47.43C102.568 47.2807 102.368 47.094 102.209 46.87C102.05 46.6367 101.971 46.3427 101.971 45.988C101.971 45.568 102.083 45.204 102.307 44.896C102.54 44.5787 102.858 44.336 103.259 44.168C103.67 43.9907 104.132 43.902 104.645 43.902C105.242 43.902 105.765 44.0327 106.213 44.294C106.67 44.546 107.002 44.9287 107.207 45.442L106.017 45.834C105.952 45.6567 105.844 45.512 105.695 45.4C105.546 45.288 105.373 45.2133 105.177 45.176C104.99 45.1293 104.804 45.106 104.617 45.106C104.262 45.106 103.968 45.176 103.735 45.316C103.502 45.456 103.385 45.6613 103.385 45.932C103.385 46.0813 103.422 46.2073 103.497 46.31C103.572 46.4033 103.674 46.4827 103.805 46.548C103.945 46.604 104.108 46.6553 104.295 46.702C104.482 46.7487 104.682 46.8 104.897 46.856C105.177 46.94 105.462 47.0333 105.751 47.136C106.04 47.2293 106.306 47.3507 106.549 47.5C106.792 47.6493 106.988 47.8453 107.137 48.088C107.286 48.3307 107.366 48.6293 107.375 48.984C107.375 49.3947 107.258 49.7587 107.025 50.076C106.801 50.3933 106.479 50.6453 106.059 50.832C105.648 51.0093 105.158 51.098 104.589 51.098C103.898 51.098 103.31 50.944 102.825 50.636C102.34 50.328 102.013 49.852 101.845 49.208L103.035 48.788Z" fill="white"/>
<defs>
<clipPath id="clip0_4_12470">
<rect width="30" height="30" fill="white" transform="translate(39)"/>
</clipPath>
</defs>
</svg>
