<svg width="24" height="24" viewBox="0 0 24 24" fill="none" xmlns="http://www.w3.org/2000/svg">
<g clip-path="url(#clip0_4_8028)">
<path d="M12.8703 21.9998C12.3874 21.9993 11.9241 21.8089 11.5803 21.4698L5.1703 15.0498C5.00581 14.8863 4.90329 14.6706 4.8803 14.4398L4.0003 5.08981C3.98683 4.94334 4.00583 4.7957 4.05596 4.65742C4.10608 4.51914 4.1861 4.39362 4.2903 4.28981C4.39411 4.18561 4.51963 4.1056 4.65791 4.05547C4.79619 4.00534 4.94383 3.98634 5.0903 3.99981L14.4403 4.87981C14.6711 4.9028 14.8868 5.00532 15.0503 5.16981L21.4703 11.5798C21.8104 11.921 22.0014 12.3831 22.0014 12.8648C22.0014 13.3466 21.8104 13.8087 21.4703 14.1498L14.1503 21.4698C13.8102 21.8083 13.3501 21.9988 12.8703 21.9998ZM6.8703 13.8898L12.8703 19.8898L19.9203 12.8398L13.9203 6.83981L6.1103 6.10981L6.8703 13.8898Z" fill="#90A4AE"/>
<path d="M10.5 12C11.3284 12 12 11.3284 12 10.5C12 9.67157 11.3284 9 10.5 9C9.67157 9 9 9.67157 9 10.5C9 11.3284 9.67157 12 10.5 12Z" fill="#90A4AE"/>
</g>
<defs>
<clipPath id="clip0_4_8028">
<rect width="24" height="24" fill="white"/>
</clipPath>
</defs>
</svg>
