<svg width="20" height="20" viewBox="0 0 20 20" fill="none" xmlns="http://www.w3.org/2000/svg">
<g clip-path="url(#clip0_4_4923)">
<path d="M9.99984 1.6665C8.35166 1.6665 6.7405 2.15525 5.37009 3.07092C3.99968 3.9866 2.93158 5.28809 2.30084 6.81081C1.67011 8.33353 1.50509 10.0091 1.82663 11.6256C2.14817 13.2421 2.94185 14.727 4.10728 15.8924C5.27272 17.0578 6.75758 17.8515 8.37409 18.173C9.9906 18.4946 11.6662 18.3296 13.1889 17.6988C14.7116 17.0681 16.0131 16 16.9288 14.6296C17.8444 13.2592 18.3332 11.648 18.3332 9.99984C18.3332 8.90549 18.1176 7.82186 17.6988 6.81081C17.28 5.79976 16.6662 4.8811 15.8924 4.10728C15.1186 3.33346 14.1999 2.71963 13.1889 2.30084C12.1778 1.88205 11.0942 1.6665 9.99984 1.6665ZM9.99984 16.6665C8.6813 16.6665 7.39237 16.2755 6.29604 15.543C5.19971 14.8104 4.34523 13.7692 3.84064 12.5511C3.33606 11.3329 3.20404 9.99244 3.46127 8.69924C3.71851 7.40603 4.35345 6.21814 5.2858 5.28579C6.21815 4.35344 7.40603 3.7185 8.69924 3.46127C9.99245 3.20403 11.3329 3.33606 12.5511 3.84064C13.7692 4.34522 14.8104 5.19971 15.543 6.29604C16.2755 7.39236 16.6665 8.6813 16.6665 9.99984C16.6665 11.7679 15.9641 13.4636 14.7139 14.7139C13.4636 15.9641 11.768 16.6665 9.99984 16.6665Z" fill="white"/>
<path d="M10.0002 5.00006C9.22661 5.00006 8.48475 5.30735 7.93777 5.85433C7.39079 6.40131 7.0835 7.14317 7.0835 7.91672C7.0835 8.13774 7.17129 8.3497 7.32757 8.50598C7.48385 8.66226 7.69582 8.75006 7.91683 8.75006C8.13784 8.75006 8.3498 8.66226 8.50608 8.50598C8.66237 8.3497 8.75016 8.13774 8.75016 7.91672C8.75016 7.6695 8.82347 7.42782 8.96083 7.22226C9.09818 7.0167 9.2934 6.85648 9.52181 6.76187C9.75022 6.66726 10.0015 6.64251 10.244 6.69074C10.4865 6.73897 10.7092 6.85802 10.884 7.03284C11.0589 7.20765 11.1779 7.43038 11.2261 7.67286C11.2744 7.91534 11.2496 8.16667 11.155 8.39508C11.0604 8.62348 10.9002 8.81871 10.6946 8.95606C10.4891 9.09341 10.2474 9.16672 10.0002 9.16672C9.77915 9.16672 9.56719 9.25452 9.41091 9.4108C9.25463 9.56708 9.16683 9.77904 9.16683 10.0001V11.6667C9.16683 11.8877 9.25463 12.0997 9.41091 12.256C9.56719 12.4123 9.77915 12.5001 10.0002 12.5001C10.2212 12.5001 10.4331 12.4123 10.5894 12.256C10.7457 12.0997 10.8335 11.8877 10.8335 11.6667V10.7001C11.5069 10.5034 12.0866 10.0699 12.4656 9.47959C12.8446 8.88924 12.9974 8.18178 12.896 7.48761C12.7945 6.79344 12.4455 6.15935 11.9133 5.70221C11.3812 5.24508 10.7017 4.9957 10.0002 5.00006Z" fill="white"/>
<path d="M9.99984 15.0002C10.4601 15.0002 10.8332 14.6271 10.8332 14.1668C10.8332 13.7066 10.4601 13.3335 9.99984 13.3335C9.5396 13.3335 9.1665 13.7066 9.1665 14.1668C9.1665 14.6271 9.5396 15.0002 9.99984 15.0002Z" fill="white"/>
</g>
<defs>
<clipPath id="clip0_4_4923">
<rect width="20" height="20" fill="white"/>
</clipPath>
</defs>
</svg>
