<svg width="24" height="24" viewBox="0 0 24 24" fill="none" xmlns="http://www.w3.org/2000/svg">
<path d="M6.2902 16.29L14.5802 8H9.0002C8.73498 8 8.48063 7.89464 8.29309 7.70711C8.10555 7.51957 8.0002 7.26522 8.0002 7C8.0002 6.73478 8.10555 6.48043 8.29309 6.29289C8.48063 6.10536 8.73498 6 9.0002 6H16.9502C17.2154 6 17.4698 6.10536 17.6573 6.29289C17.8448 6.48043 17.9502 6.73478 17.9502 7V15C17.9502 15.2652 17.8448 15.5196 17.6573 15.7071C17.4698 15.8946 17.2154 16 16.9502 16H17.0002C16.735 16 16.4806 15.8946 16.2931 15.7071C16.1056 15.5196 16.0002 15.2652 16.0002 15V9.45L7.7402 17.71C7.64723 17.8037 7.53663 17.8781 7.41477 17.9289C7.29291 17.9797 7.16221 18.0058 7.0302 18.0058C6.89818 18.0058 6.76748 17.9797 6.64562 17.9289C6.52376 17.8781 6.41316 17.8037 6.3202 17.71C6.22448 17.619 6.14772 17.51 6.09436 17.3892C6.041 17.2684 6.01209 17.1383 6.0093 17.0063C6.00651 16.8742 6.0299 16.743 6.07811 16.62C6.12632 16.4971 6.1984 16.3849 6.2902 16.29Z" fill="#90A4AE"/>
</svg>
