<svg width="18" height="18" viewBox="0 0 18 18" fill="none" xmlns="http://www.w3.org/2000/svg">
<path d="M0.439443 2.87673C0.164254 3.18631 0.19214 3.66037 0.501727 3.93556C0.811314 4.21075 1.28537 4.18286 1.56056 3.87327L0.439443 2.87673ZM2.50518 1.68167L1.94462 1.1834L1.94462 1.1834L2.50518 1.68167ZM5.49482 1.68167L6.05538 1.1834V1.1834L5.49482 1.68167ZM5.49482 16.3183L6.05538 16.8166L5.49482 16.3183ZM7.56056 15.1233C7.83575 14.8137 7.80786 14.3396 7.49827 14.0644C7.18869 13.7893 6.71463 13.8171 6.43944 14.1267L7.56056 15.1233ZM2.50518 16.3183L1.94462 16.8166L2.50518 16.3183ZM1.56056 14.1267C1.28537 13.8171 0.811314 13.7893 0.501727 14.0644C0.19214 14.3396 0.164254 14.8137 0.439443 15.1233L1.56056 14.1267ZM1.56056 3.87327L3.06574 2.17994L1.94462 1.1834L0.439443 2.87673L1.56056 3.87327ZM4.93426 2.17994L6.43944 3.87327L7.56056 2.87673L6.05538 1.1834L4.93426 2.17994ZM6.05538 16.8166L7.56056 15.1233L6.43944 14.1267L4.93426 15.8201L6.05538 16.8166ZM3.06574 15.8201L1.56056 14.1267L0.439443 15.1233L1.94462 16.8166L3.06574 15.8201ZM4.93426 15.8201C4.43702 16.3794 3.56298 16.3794 3.06574 15.8201L1.94462 16.8166C3.03855 18.0473 4.96145 18.0473 6.05538 16.8166L4.93426 15.8201ZM3.06574 2.17994C3.56298 1.62055 4.43702 1.62055 4.93426 2.17994L6.05538 1.1834C4.96145 -0.0472668 3.03855 -0.0472668 1.94462 1.1834L3.06574 2.17994ZM13 1.75H15V0.25H13V1.75ZM16.25 3V5H17.75V3H16.25ZM15 6.25H13V7.75H15V6.25ZM11.75 5V3H10.25V5H11.75ZM13 6.25C12.3096 6.25 11.75 5.69036 11.75 5H10.25C10.25 6.51878 11.4812 7.75 13 7.75V6.25ZM16.25 5C16.25 5.69036 15.6904 6.25 15 6.25V7.75C16.5188 7.75 17.75 6.51878 17.75 5H16.25ZM15 1.75C15.6904 1.75 16.25 2.30964 16.25 3H17.75C17.75 1.48122 16.5188 0.25 15 0.25V1.75ZM13 0.25C11.4812 0.25 10.25 1.48122 10.25 3H11.75C11.75 2.30964 12.3096 1.75 13 1.75V0.25ZM13 11.75H15V10.25H13V11.75ZM16.25 13V15H17.75V13H16.25ZM15 16.25H13V17.75H15V16.25ZM11.75 15V13H10.25V15H11.75ZM13 16.25C12.3096 16.25 11.75 15.6904 11.75 15H10.25C10.25 16.5188 11.4812 17.75 13 17.75V16.25ZM16.25 15C16.25 15.6904 15.6904 16.25 15 16.25V17.75C16.5188 17.75 17.75 16.5188 17.75 15H16.25ZM15 11.75C15.6904 11.75 16.25 12.3096 16.25 13H17.75C17.75 11.4812 16.5188 10.25 15 10.25V11.75ZM13 10.25C11.4812 10.25 10.25 11.4812 10.25 13H11.75C11.75 12.3096 12.3096 11.75 13 11.75V10.25ZM3.25 1V17H4.75V1H3.25Z" fill="#90A4AE"/>
</svg>
