<svg width="20" height="20" viewBox="0 0 20 20" fill="none" xmlns="http://www.w3.org/2000/svg">
<g clip-path="url(#clip0_4_4917)">
<path d="M10.0002 18.3332C9.12565 18.3332 8.27331 18.058 7.56387 17.5467C6.85443 17.0353 6.32386 16.3138 6.04732 15.4841C5.77077 14.6545 5.76227 13.7589 6.02302 12.9241C6.28377 12.0894 6.80055 11.3579 7.50016 10.8332V4.1665C7.50016 3.50346 7.76355 2.86758 8.2324 2.39874C8.70124 1.9299 9.33712 1.6665 10.0002 1.6665C10.6632 1.6665 11.2991 1.9299 11.7679 2.39874C12.2368 2.86758 12.5002 3.50346 12.5002 4.1665V10.8332C13.1998 11.3579 13.7166 12.0894 13.9773 12.9241C14.2381 13.7589 14.2296 14.6545 13.953 15.4841C13.6765 16.3138 13.1459 17.0353 12.4365 17.5467C11.727 18.058 10.8747 18.3332 10.0002 18.3332ZM10.0002 3.33317C9.77915 3.33317 9.56719 3.42097 9.41091 3.57725C9.25463 3.73353 9.16683 3.94549 9.16683 4.1665V11.2832C9.16741 11.43 9.12918 11.5744 9.05601 11.7017C8.98284 11.829 8.87733 11.9348 8.75016 12.0082C8.3711 12.227 8.05614 12.5416 7.83678 12.9203C7.61742 13.2991 7.50134 13.7288 7.50016 14.1665C7.50016 14.8295 7.76355 15.4654 8.2324 15.9343C8.70124 16.4031 9.33712 16.6665 10.0002 16.6665C10.6632 16.6665 11.2991 16.4031 11.7679 15.9343C12.2368 15.4654 12.5002 14.8295 12.5002 14.1665C12.499 13.7288 12.3829 13.2991 12.1635 12.9203C11.9442 12.5416 11.6292 12.227 11.2502 12.0082C11.123 11.9348 11.0175 11.829 10.9443 11.7017C10.8711 11.5744 10.8329 11.43 10.8335 11.2832V4.1665C10.8352 4.05915 10.8147 3.9526 10.7731 3.85362C10.7315 3.75464 10.6697 3.66538 10.5918 3.5915C10.5153 3.51125 10.4236 3.44707 10.322 3.40271C10.2204 3.35835 10.111 3.33471 10.0002 3.33317Z" fill="white"/>
</g>
<defs>
<clipPath id="clip0_4_4917">
<rect width="20" height="20" fill="white"/>
</clipPath>
</defs>
</svg>
